<svg width="25" height="24" viewBox="0 0 25 24" fill="none" xmlns="http://www.w3.org/2000/svg">
<path d="M12.4998 4C7.62076 4 3.49976 8.121 3.49976 13C3.49976 17.879 7.62076 22 12.4998 22C17.3788 22 21.4998 17.879 21.4998 13C21.4998 8.121 17.3788 4 12.4998 4ZM12.4998 20C8.70576 20 5.49976 16.794 5.49976 13C5.49976 9.206 8.70576 6 12.4998 6C16.2938 6 19.4998 9.206 19.4998 13C19.4998 16.794 16.2938 20 12.4998 20Z" fill="white"/>
<path d="M13.4997 8H11.4997V12H7.49972V14H11.4997V18H13.4997V14H17.4997V12H13.4997V8ZM20.7917 6.708L17.7817 3.708L19.1937 2.291L22.2037 5.291L20.7917 6.708ZM5.78172 2.294L7.19972 3.706L4.20972 6.706L2.79272 5.293L5.78172 2.294Z" fill="white"/>
</svg>
