<svg width="48" height="52" viewBox="0 0 48 52" fill="none" xmlns="http://www.w3.org/2000/svg">
<path d="M34.3937 34.15C35.9062 33.3375 37.6374 32.875 39.4812 32.875H39.4874C39.6749 32.875 39.7624 32.65 39.6249 32.525C37.7075 30.8042 35.5172 29.4144 33.1437 28.4125C33.1187 28.4 33.0937 28.3937 33.0687 28.3812C36.9499 25.5625 39.4749 20.9812 39.4749 15.8125C39.4749 7.25 32.5499 0.3125 24.0062 0.3125C15.4624 0.3125 8.54366 7.25 8.54366 15.8125C8.54366 20.9812 11.0687 25.5625 14.9562 28.3812C14.9312 28.3937 14.9062 28.4 14.8812 28.4125C12.0874 29.5937 9.58116 31.2875 7.42491 33.45C5.28111 35.5899 3.57437 38.1267 2.39991 40.9188C1.24437 43.6529 0.620734 46.5823 0.562412 49.55C0.560744 49.6167 0.572444 49.6831 0.596824 49.7452C0.621203 49.8073 0.657768 49.8639 0.704365 49.9117C0.750961 49.9594 0.806646 49.9974 0.868138 50.0233C0.92963 50.0492 0.995686 50.0625 1.06241 50.0625H4.80616C5.07491 50.0625 5.29991 49.8438 5.30616 49.575C5.43116 44.75 7.36241 40.2313 10.7812 36.8063C14.3124 33.2625 19.0124 31.3125 24.0124 31.3125C27.5562 31.3125 30.9562 32.2937 33.8874 34.1312C33.9627 34.1786 34.0492 34.2052 34.138 34.2085C34.2269 34.2118 34.3151 34.1916 34.3937 34.15V34.15ZM24.0124 26.5625C21.1499 26.5625 18.4562 25.4438 16.4249 23.4125C15.4255 22.4157 14.6332 21.231 14.0937 19.9266C13.5541 18.6223 13.278 17.224 13.2812 15.8125C13.2812 12.9437 14.3999 10.2437 16.4249 8.2125C18.4499 6.18125 21.1437 5.0625 24.0124 5.0625C26.8812 5.0625 29.5687 6.18125 31.5999 8.2125C32.5993 9.20932 33.3916 10.394 33.9312 11.6984C34.4707 13.0027 34.7468 14.401 34.7437 15.8125C34.7437 18.6813 33.6249 21.3813 31.5999 23.4125C29.5687 25.4438 26.8749 26.5625 24.0124 26.5625ZM46.9999 41.4375H41.7499V36.1875C41.7499 35.9125 41.5249 35.6875 41.2499 35.6875H37.7499C37.4749 35.6875 37.2499 35.9125 37.2499 36.1875V41.4375H31.9999C31.7249 41.4375 31.4999 41.6625 31.4999 41.9375V45.4375C31.4999 45.7125 31.7249 45.9375 31.9999 45.9375H37.2499V51.1875C37.2499 51.4625 37.4749 51.6875 37.7499 51.6875H41.2499C41.5249 51.6875 41.7499 51.4625 41.7499 51.1875V45.9375H46.9999C47.2749 45.9375 47.4999 45.7125 47.4999 45.4375V41.9375C47.4999 41.6625 47.2749 41.4375 46.9999 41.4375Z" fill="white"/>
</svg>
