<?xml version="1.0" encoding="UTF-8" standalone="no"?>
<svg
   width="39"
   height="38"
   viewBox="0 0 39 38"
   fill="none"
   version="1.1"
   id="svg8"
   xmlns="http://www.w3.org/2000/svg"
   xmlns:svg="http://www.w3.org/2000/svg">
  <defs
     id="defs12" />
  <path
     d="M0.259766 4.16016C0.259766 1.95102 2.05063 0.160156 4.25977 0.160156H34.0802C36.2893 0.160156 38.0802 1.95102 38.0802 4.16016V33.9806C38.0802 36.1897 36.2893 37.9806 34.0802 37.9806H4.25976C2.05062 37.9806 0.259766 36.1897 0.259766 33.9806V4.16016Z"
     fill="#13053D"
     id="path2" />
  <g
     style="fill:none"
     id="g189"
     transform="matrix(1.5711551,0,0,1.5711551,0.19986588,0.47449437)">
    <path
       d="m 3,3 v 16 c 0,0.5304 0.21071,1.0391 0.58579,1.4142 C 3.96086,20.7893 4.46957,21 5,21 h 16"
       stroke="#ffffff"
       stroke-width="2"
       stroke-miterlimit="5.759"
       stroke-linecap="round"
       stroke-linejoin="round"
       id="path174" />
    <path
       d="m 7,14 4,-4 4,4 6,-6"
       stroke="#ffffff"
       stroke-width="2"
       stroke-miterlimit="5.759"
       stroke-linecap="round"
       stroke-linejoin="round"
       id="path176" />
    <path
       d="m 18,8 h 3 v 3"
       stroke="#ffffff"
       stroke-width="2"
       stroke-linecap="round"
       stroke-linejoin="round"
       id="path178" />
  </g>
</svg>
