<svg width="28" height="28" viewBox="0 0 28 28" fill="none" xmlns="http://www.w3.org/2000/svg">
  <path
    d="M14 28C21.732 28 28 21.732 28 14C28 6.26801 21.732 0 14 0C6.26801 0 0 6.26801 0 14C0 21.732 6.26801 28 14 28Z"
    fill="url(#paint0_radial_2586_15626)" />
  <path fill-rule="evenodd" clip-rule="evenodd"
    d="M13.4116 7.47549C13.394 7.48039 13.3764 7.48529 13.3586 7.48973C13.3456 7.49365 13.3325 7.49741 13.3195 7.50115C13.3096 7.50401 13.2997 7.50686 13.2898 7.50978C13.275 7.51344 13.2602 7.51682 13.2455 7.52018C13.2373 7.52206 13.2291 7.52393 13.2209 7.52585C13.2023 7.53105 13.1837 7.53609 13.1652 7.54113C13.1319 7.55017 13.0987 7.55918 13.0656 7.56906C13.0529 7.57078 13.0403 7.57269 13.0279 7.57459C13.0087 7.58097 12.9895 7.58694 12.9704 7.5929C12.9616 7.59566 12.9528 7.59841 12.9439 7.6012C12.8981 7.6114 12.8526 7.62332 12.8075 7.63559C12.789 7.63998 12.7706 7.64469 12.7523 7.64938C12.7353 7.65376 12.7183 7.65812 12.7012 7.66221C12.6682 7.67164 12.6349 7.68017 12.6017 7.68869C12.5595 7.69953 12.5172 7.71037 12.4755 7.72304L12.4153 7.72892L12.417 7.74638L12.3929 7.74396C12.4003 7.77571 12.4088 7.80719 12.4172 7.83876C12.4185 7.84345 12.4197 7.84814 12.421 7.85284C12.4403 7.91713 12.4575 7.98211 12.4729 8.04761L12.4729 8.04768C12.5023 8.15688 12.5317 8.26609 12.5599 8.37546C12.5659 8.3979 12.5716 8.42051 12.5773 8.44313L12.5774 8.44321C12.5825 8.46167 12.5873 8.48025 12.592 8.49884C12.5931 8.50323 12.5942 8.50761 12.5954 8.512C12.6005 8.53074 12.6053 8.54959 12.61 8.56847C12.6111 8.57292 12.6122 8.57737 12.6133 8.58182C12.6312 8.64576 12.6478 8.71005 12.6635 8.77469C12.6696 8.79696 12.6753 8.81958 12.681 8.84219L12.681 8.84227C12.6869 8.86422 12.6928 8.88634 12.6983 8.90846C12.703 8.92541 12.7073 8.94227 12.7117 8.95924C12.7135 8.96597 12.7152 8.97272 12.717 8.97949C12.7346 9.04395 12.7514 9.10876 12.7675 9.17375C12.7798 9.21868 12.7917 9.26362 12.8031 9.30872C12.8104 9.33749 12.8191 9.36597 12.8279 9.39447C12.847 9.45691 12.8662 9.5194 12.8699 9.5849C12.8203 9.59213 12.7713 9.6036 12.7225 9.61503L12.7184 9.61601C12.6812 9.62732 12.6437 9.6374 12.6062 9.64748C12.575 9.65588 12.5437 9.66428 12.5127 9.67339C12.4834 9.68099 12.4543 9.68894 12.4252 9.69689C12.3961 9.70484 12.367 9.71279 12.3378 9.7204C12.3218 9.72503 12.3058 9.72921 12.2898 9.7334C12.2837 9.73499 12.2776 9.73658 12.2715 9.7382C12.2431 9.74728 12.2146 9.75564 12.186 9.764C12.1505 9.77441 12.1149 9.78482 12.0798 9.79661C12.0397 9.80733 11.9992 9.81735 11.9579 9.82081C11.9447 9.7259 11.92 9.63336 11.8952 9.54082C11.8822 9.49214 11.8692 9.44347 11.8579 9.39445C11.8527 9.37695 11.8478 9.35932 11.843 9.34173C11.8399 9.33047 11.8368 9.31922 11.8336 9.30803C11.823 9.26101 11.8106 9.21444 11.7981 9.16791C11.7889 9.13337 11.7797 9.09885 11.7712 9.06418C11.7658 9.04528 11.761 9.02651 11.7561 9.00766C11.7551 9.00392 11.7542 9.00017 11.7532 8.99643C11.7468 8.97379 11.7409 8.9508 11.7354 8.92799C11.7302 8.91008 11.7256 8.89197 11.721 8.87397C11.7197 8.86904 11.7185 8.86411 11.7172 8.8592C11.7121 8.84031 11.7076 8.82119 11.7031 8.80211C11.7021 8.79781 11.7011 8.79351 11.7001 8.78921C11.6755 8.70228 11.6529 8.61465 11.6314 8.52686C11.6267 8.51153 11.6223 8.4961 11.6179 8.48067C11.6144 8.46862 11.6109 8.45657 11.6074 8.44459C11.6033 8.42671 11.5988 8.40886 11.5944 8.39102C11.5899 8.37317 11.5855 8.35533 11.5814 8.33744C11.5769 8.32189 11.5726 8.30634 11.5684 8.29079C11.565 8.27834 11.5616 8.26589 11.558 8.25345C11.5544 8.23902 11.5505 8.22461 11.5466 8.2102C11.5319 8.15504 11.5171 8.09978 11.5113 8.04277C11.5037 8.02906 11.4892 8.00224 11.4808 7.98678L11.4792 7.98367C11.4499 7.98702 11.4216 7.99466 11.3934 8.00228C11.3853 8.00446 11.3772 8.00664 11.3691 8.00873C11.3287 8.02134 11.2878 8.03258 11.2466 8.0426C11.2326 8.04648 11.2186 8.05015 11.2046 8.05382C11.1898 8.05767 11.1751 8.06151 11.1605 8.06559C11.1382 8.07129 11.1159 8.07699 11.0939 8.08339C11.0186 8.10248 10.9433 8.12197 10.868 8.14146C10.7928 8.16094 10.7175 8.18043 10.6422 8.19953C10.5995 8.21206 10.5562 8.22253 10.5129 8.233C10.4529 8.2475 10.393 8.26199 10.3346 8.28196C10.3398 8.30685 10.3455 8.33139 10.3517 8.35611C10.3566 8.37358 10.3616 8.39101 10.3666 8.40846C10.372 8.42709 10.3773 8.44573 10.3825 8.46447C10.3879 8.48624 10.3932 8.50802 10.3983 8.52997C10.4021 8.54241 10.4057 8.55492 10.4094 8.56745C10.4142 8.58381 10.419 8.60021 10.4242 8.61656C10.4258 8.62707 10.4276 8.63759 10.4294 8.64821C10.4297 8.64998 10.43 8.65176 10.4303 8.65354C10.4438 8.69882 10.4559 8.74462 10.4673 8.79059C10.4735 8.81375 10.4796 8.83708 10.4855 8.86059C10.4915 8.88323 10.4972 8.90587 10.5029 8.92868C10.5092 8.95149 10.515 8.97413 10.5209 8.99712C10.5247 9.0108 10.5283 9.02461 10.5319 9.03843C10.5342 9.0473 10.5365 9.05619 10.5389 9.06504C10.5438 9.08319 10.5486 9.10168 10.5533 9.12C10.5835 9.22922 10.6123 9.3388 10.6394 9.44871C10.6522 9.49756 10.6651 9.54638 10.678 9.5952C10.7 9.67834 10.7219 9.76147 10.7434 9.84466C10.75 9.86834 10.756 9.89219 10.7621 9.91604C10.7678 9.93747 10.7731 9.95907 10.7783 9.98067C10.7829 9.99548 10.7872 10.0104 10.7915 10.0253C10.7956 10.0395 10.7996 10.0536 10.8039 10.0678C10.8091 10.0881 10.8146 10.1084 10.8202 10.1286C10.8231 10.1392 10.826 10.1498 10.8289 10.1604C10.7962 10.1715 10.7631 10.1822 10.7302 10.1926C10.6851 10.2034 10.6402 10.2155 10.5954 10.2275C10.5588 10.2373 10.5223 10.2472 10.4856 10.2563C10.4455 10.2681 10.4054 10.2793 10.3649 10.2895C10.3509 10.2938 10.337 10.298 10.3231 10.3022C10.3092 10.3064 10.2952 10.3106 10.2813 10.3149C10.2604 10.3197 10.2396 10.3251 10.2188 10.3304C10.2044 10.3341 10.19 10.3378 10.1754 10.3414C10.0719 10.3709 9.96725 10.397 9.86265 10.423C9.83392 10.4302 9.8052 10.4373 9.7765 10.4445C9.75366 10.4509 9.73065 10.457 9.70764 10.4629C9.68394 10.4691 9.66024 10.4748 9.63654 10.4805C9.58516 10.4938 9.53395 10.5071 9.48309 10.5223L9.48303 10.5223C9.46644 10.5253 9.44985 10.5282 9.43344 10.5313C9.41008 10.538 9.38673 10.5443 9.3632 10.5505C9.32203 10.5614 9.28085 10.5723 9.23951 10.5826C9.22144 10.5877 9.20326 10.5922 9.18505 10.5968C9.18077 10.5979 9.17649 10.599 9.17221 10.6001C9.14903 10.6063 9.12585 10.612 9.10266 10.6175C9.07967 10.6236 9.05669 10.6291 9.0337 10.6346L9.03364 10.6346C9.01063 10.641 8.98779 10.6469 8.96478 10.6528C8.94177 10.6588 8.91876 10.6645 8.89576 10.6701C8.87275 10.6765 8.84991 10.6825 8.8269 10.6886C8.80544 10.694 8.78382 10.6991 8.76234 10.7041L8.7577 10.7052C8.74667 10.7084 8.7356 10.7115 8.72454 10.7146C8.71254 10.718 8.70056 10.7214 8.68867 10.7249C8.66532 10.7299 8.64179 10.7344 8.61844 10.7387C8.60918 10.7416 8.59992 10.7444 8.59067 10.7473C8.57122 10.7532 8.5518 10.7592 8.53246 10.7656L8.51758 10.7703C8.52915 10.8217 8.54346 10.8723 8.55776 10.9229C8.56035 10.9321 8.56293 10.9412 8.5655 10.9504C8.57121 10.9736 8.5764 10.9969 8.58159 11.0202C8.58511 11.0312 8.58856 11.0422 8.59201 11.0533C8.59736 11.0704 8.60272 11.0875 8.6084 11.1046L8.61342 11.1428C8.62069 11.1652 8.62761 11.188 8.63453 11.2108C8.64041 11.234 8.64594 11.2573 8.65148 11.2807L8.65148 11.2807C8.65753 11.3019 8.66342 11.3234 8.66913 11.3448C8.67518 11.3683 8.68072 11.392 8.68625 11.4156L8.68626 11.4157C8.69283 11.4386 8.6994 11.4616 8.7058 11.4848C8.7103 11.5026 8.71462 11.5206 8.71878 11.5387C8.72493 11.56 8.73062 11.5818 8.73629 11.6035L8.73746 11.608C8.74369 11.631 8.7494 11.6543 8.75511 11.6777C8.76722 11.7186 8.77846 11.7599 8.7885 11.8016C8.79199 11.8155 8.79545 11.8294 8.79891 11.8433C8.81187 11.8954 8.82482 11.9474 8.8397 11.9991C8.87124 11.991 8.90266 11.9823 8.93407 11.9737C8.95572 11.9677 8.97736 11.9617 8.99904 11.9559C9.0168 11.9504 9.03463 11.9451 9.05249 11.9398C9.06332 11.9366 9.07417 11.9334 9.08502 11.9302C9.1016 11.9261 9.11807 11.9218 9.13453 11.9174C9.1531 11.9126 9.17167 11.9077 9.19037 11.9032C9.21236 11.8967 9.23449 11.8908 9.25649 11.8849L9.26061 11.8838C9.32074 11.8663 9.38114 11.85 9.44145 11.8337C9.44951 11.8315 9.45756 11.8293 9.46562 11.8271C9.50601 11.8177 9.54589 11.8071 9.58592 11.7964C9.59201 11.7948 9.5981 11.7932 9.60419 11.7915C9.63944 11.786 9.67451 11.7789 9.70952 11.7717C9.72158 11.7693 9.73364 11.7668 9.7457 11.7644C9.8021 11.7516 9.86006 11.7502 9.91749 11.7492C9.98185 11.7478 10.0453 11.7572 10.1073 11.7743C10.1355 11.786 10.164 11.7974 10.1926 11.8085C10.2858 11.8617 10.3637 11.9388 10.4223 12.0285C10.4358 12.0557 10.4496 12.0827 10.4634 12.1098C10.4662 12.1153 10.469 12.1208 10.4718 12.1263L10.4829 12.1937C10.5081 12.2776 10.5295 12.3627 10.5509 12.4477C10.5573 12.4729 10.5636 12.498 10.57 12.5231C10.5764 12.5456 10.5825 12.5682 10.5886 12.591C10.5935 12.6088 10.5979 12.6266 10.6023 12.6446C10.6037 12.65 10.605 12.6554 10.6064 12.6609C10.6113 12.6783 10.6157 12.6957 10.6202 12.7133C10.6215 12.7186 10.6228 12.7238 10.6242 12.7291C10.6417 12.7931 10.6588 12.8574 10.6745 12.9218C10.6806 12.9443 10.6865 12.9669 10.6922 12.9897C10.6984 13.0129 10.7043 13.0362 10.71 13.0597C10.7162 13.0822 10.7225 13.1047 10.7285 13.1273C10.7396 13.1686 10.7503 13.2101 10.7605 13.2518C10.7731 13.2967 10.7853 13.342 10.7968 13.3874C10.8141 13.4535 10.8316 13.5195 10.8492 13.5855C10.8836 13.7152 10.9181 13.845 10.9506 13.9752C10.9554 13.9916 10.9598 14.0081 10.9642 14.0248C10.9659 14.0312 10.9676 14.0376 10.9693 14.044C10.9754 14.0673 10.9809 14.0908 10.9863 14.1147C10.9874 14.1185 10.9885 14.1223 10.9896 14.1262C10.9948 14.1442 11 14.1625 11.005 14.1807C11.0092 14.1973 11.0131 14.2139 11.017 14.2307C11.0185 14.2371 11.02 14.2435 11.0216 14.25C11.0259 14.2647 11.0301 14.2795 11.0342 14.2943C11.0381 14.3083 11.042 14.3224 11.0461 14.3364C11.0505 14.3553 11.0552 14.3741 11.0599 14.393C11.064 14.4096 11.0682 14.4262 11.0721 14.4429C11.0785 14.4655 11.0847 14.4885 11.0909 14.5115C11.097 14.5352 11.1025 14.559 11.1081 14.583C11.1268 14.6447 11.1441 14.7069 11.1595 14.7697C11.1627 14.7811 11.1659 14.7926 11.169 14.8042C11.1736 14.8209 11.1782 14.8377 11.1832 14.8544C11.1928 14.895 11.2034 14.9354 11.2139 14.9759C11.2246 15.0168 11.2353 15.0577 11.2451 15.0989C11.287 15.2541 11.3276 15.4098 11.3665 15.5659C11.3726 15.5873 11.3785 15.6088 11.3842 15.6305C11.3899 15.6525 11.395 15.6746 11.4002 15.6969L11.4022 15.7054C11.4087 15.7271 11.4152 15.7491 11.4216 15.7712C11.4262 15.789 11.4307 15.8073 11.4352 15.8257C11.4416 15.8478 11.4477 15.8704 11.4537 15.8931C11.4596 15.916 11.4651 15.9395 11.4707 15.963C11.4773 15.9855 11.4838 16.0083 11.4902 16.0313C11.4958 16.054 11.501 16.0769 11.5061 16.1001C11.5179 16.1407 11.529 16.1815 11.5394 16.2226C11.5729 16.3439 11.6041 16.466 11.6353 16.588C11.6439 16.6214 11.6524 16.6548 11.661 16.6882C11.6906 16.798 11.7195 16.9081 11.7475 17.0182L11.7656 17.084C11.7714 17.1073 11.7764 17.1308 11.7812 17.1547C11.7895 17.1775 11.798 17.2003 11.8066 17.2233C11.8167 17.303 11.8181 17.3844 11.8025 17.4635C11.7964 17.481 11.7909 17.499 11.7855 17.5169C11.7528 17.5795 11.7094 17.6362 11.6523 17.6785C11.5584 17.7312 11.4556 17.7642 11.3517 17.7909C11.1954 17.8327 11.0387 17.8728 10.8814 17.9108L10.8138 17.9284C10.7851 17.9348 10.7564 17.9404 10.7276 17.9457C10.702 17.9521 10.6764 17.9582 10.6508 17.964C10.6514 18.0055 10.6527 18.0475 10.6546 18.0893C10.6672 18.1453 10.6699 18.2027 10.6726 18.26C10.6731 18.2712 10.6736 18.2824 10.6742 18.2936C10.6782 18.312 10.6806 18.3307 10.683 18.3494C10.685 18.3649 10.687 18.3804 10.6899 18.3958C10.6915 18.3935 10.695 18.389 10.6967 18.3868C10.6973 18.3996 10.695 18.4121 10.6927 18.4247C10.6901 18.4389 10.6874 18.4532 10.6891 18.4682C10.7083 18.594 10.7187 18.7214 10.7249 18.8486C10.7373 18.9111 10.7401 18.9749 10.7425 19.0385C10.7591 19.1579 10.7676 19.2787 10.7751 19.3994C10.8245 19.3938 10.8731 19.3826 10.9212 19.37C10.9391 19.3638 10.957 19.358 10.975 19.3525C10.9982 19.3459 11.0216 19.3402 11.0449 19.3347C11.1676 19.3008 11.2911 19.2694 11.4145 19.238L11.4399 19.2315C11.4568 19.2268 11.4739 19.2225 11.4911 19.2182C11.5027 19.2152 11.5143 19.2123 11.5259 19.2092L11.5926 19.1899C11.6471 19.1771 11.7012 19.163 11.7554 19.1489C11.806 19.1357 11.8566 19.1225 11.9075 19.1104C11.9271 19.1047 11.947 19.0996 11.9669 19.0945C11.9705 19.0936 11.9741 19.0927 11.9777 19.0917C11.9997 19.0858 12.0219 19.0803 12.0442 19.0753C12.0649 19.069 12.0857 19.0632 12.1065 19.0574C12.1144 19.0552 12.1223 19.053 12.1302 19.0508C12.1497 19.0463 12.1691 19.0414 12.1885 19.0366C12.2052 19.0324 12.2218 19.0282 12.2385 19.0243C12.2609 19.0178 12.2836 19.0119 12.3064 19.0063C12.3293 18.9998 12.3525 18.9941 12.3756 18.9884C12.3988 18.9822 12.4222 18.977 12.4455 18.972C12.4673 18.9654 12.4893 18.959 12.5115 18.9531C12.5341 18.9472 12.5569 18.9421 12.58 18.9374C12.6031 18.9308 12.6267 18.9251 12.6504 18.9196C12.6725 18.9135 12.695 18.9078 12.7175 18.9026C12.7407 18.8961 12.7639 18.8902 12.7874 18.8845C12.8107 18.8783 12.8343 18.8729 12.8581 18.8679C12.8993 18.8562 12.941 18.8451 12.9827 18.8349C13.0014 18.8292 13.0202 18.8239 13.039 18.8186C13.0542 18.8143 13.0693 18.81 13.0844 18.8055C13.0893 18.8152 13.099 18.8341 13.1044 18.8443L13.1048 18.8453C13.1094 18.868 13.1146 18.8908 13.1199 18.9135C13.124 18.9315 13.1282 18.9495 13.132 18.9676C13.1496 19.0321 13.1664 19.0967 13.1827 19.1617C13.1889 19.1842 13.1946 19.2072 13.2003 19.2302C13.2129 19.2773 13.2257 19.3244 13.2384 19.3715C13.2664 19.4748 13.2944 19.5781 13.3204 19.6819C13.3386 19.7497 13.3566 19.8174 13.373 19.8857C13.3781 19.9039 13.3828 19.9221 13.3876 19.9407C13.3888 19.9452 13.39 19.9497 13.3912 19.9543C13.3957 19.9701 13.3996 19.986 13.4036 20.0021C13.4053 20.0089 13.4071 20.0157 13.4088 20.0226C13.427 20.087 13.4436 20.1522 13.4591 20.2175C13.4719 20.2624 13.4844 20.3079 13.4951 20.3537L13.5148 20.4208C13.5193 20.4391 13.5237 20.4579 13.5278 20.4769C13.5493 20.5537 13.5697 20.6309 13.583 20.7099C13.6126 20.7052 13.6422 20.6997 13.6716 20.6931L13.7074 20.6847C13.7299 20.6769 13.7526 20.6695 13.7754 20.6624C13.798 20.657 13.8209 20.6523 13.8439 20.6477C13.8842 20.6352 13.9249 20.624 13.9659 20.6138C14.1212 20.5725 14.2766 20.5317 14.4324 20.493C14.4506 20.4877 14.469 20.4827 14.4874 20.4778C14.4977 20.475 14.5081 20.4722 14.5184 20.4693C14.533 20.4657 14.5476 20.4621 14.5622 20.4584C14.6138 20.4454 14.6654 20.4323 14.7181 20.4237L14.7169 20.4087L14.7416 20.4125C14.7329 20.3673 14.7207 20.323 14.7084 20.2788C14.7038 20.2622 14.6993 20.2457 14.6949 20.2291C14.6906 20.2146 14.6865 20.2 14.6824 20.1856C14.6785 20.1718 14.6746 20.1581 14.6707 20.1446C14.6584 20.094 14.6453 20.0437 14.6321 19.9934C14.618 19.9397 14.6039 19.886 14.5911 19.8321C14.5874 19.819 14.5838 19.8059 14.5803 19.7929C14.5761 19.7775 14.572 19.7622 14.5676 19.7469C14.5602 19.7179 14.5526 19.689 14.545 19.66C14.5314 19.6082 14.5179 19.5564 14.5054 19.5043C14.4926 19.4579 14.4805 19.4116 14.4696 19.365C14.4631 19.3425 14.4572 19.3202 14.4515 19.2979C14.4394 19.2566 14.4281 19.2151 14.4181 19.1735C14.4117 19.1503 14.4058 19.1275 14.4003 19.1049C14.3939 19.0819 14.3882 19.0591 14.3826 19.0364C14.3762 19.0136 14.3703 18.991 14.3648 18.9685C14.3584 18.9447 14.3527 18.9212 14.347 18.8977L14.347 18.8976C14.3357 18.8572 14.3247 18.8168 14.3145 18.7761C14.3018 18.7309 14.2899 18.6858 14.2785 18.6403C14.2527 18.5484 14.2297 18.4555 14.2103 18.362C14.2039 18.3391 14.1982 18.3163 14.1928 18.2934C14.1866 18.2698 14.1812 18.2461 14.1761 18.2226C14.1698 18.1994 14.1643 18.1764 14.1591 18.1536C14.1437 18.095 14.1295 18.0361 14.1154 17.9772C14.1104 17.9562 14.1054 17.9352 14.1003 17.9143C14.0942 17.8911 14.088 17.8681 14.0812 17.8456C14.0783 17.8265 14.0757 17.8076 14.0731 17.7888C14.0665 17.7661 14.0605 17.7435 14.0548 17.721C14.0479 17.6945 14.0421 17.6681 14.0362 17.6417L14.0356 17.6388C14.0293 17.6158 14.024 17.5926 14.0188 17.5698C14.0131 17.5484 14.0083 17.5272 14.0035 17.5061C14.0028 17.5028 14.0021 17.4996 14.0013 17.4964C13.9974 17.4824 13.9936 17.4684 13.9899 17.4545C13.9859 17.4398 13.982 17.4251 13.9778 17.4105C13.9735 17.3891 13.9687 17.3679 13.9639 17.3467C13.9596 17.3279 13.9554 17.3092 13.9515 17.2904C13.9468 17.2734 13.9424 17.2566 13.938 17.2398C13.9351 17.2283 13.9321 17.2168 13.929 17.2053C13.9206 17.1676 13.9111 17.1301 13.9015 17.0927C13.8948 17.0667 13.8882 17.0408 13.882 17.0147C13.8744 16.9879 13.8672 16.9611 13.86 16.9342C13.8535 16.9099 13.847 16.8856 13.8403 16.8614C13.8277 16.8097 13.8141 16.7582 13.8006 16.7067C13.7867 16.6537 13.7727 16.6006 13.7598 16.5474C13.7536 16.5247 13.7479 16.5024 13.7423 16.48C13.738 16.4649 13.7339 16.4498 13.7299 16.4347C13.7262 16.4213 13.7226 16.4079 13.7188 16.3946C13.7143 16.3763 13.7095 16.3581 13.7047 16.3399C13.7003 16.323 13.6958 16.3061 13.6917 16.2892C13.6851 16.2662 13.6792 16.2434 13.6733 16.2207C13.6671 16.1976 13.6616 16.1748 13.656 16.1518C13.6494 16.1286 13.6436 16.1056 13.6377 16.0827L13.6377 16.0826C13.6322 16.0626 13.6274 16.0424 13.6227 16.0225C13.622 16.0198 13.6214 16.0171 13.6207 16.0144C13.6148 15.9933 13.609 15.9722 13.6033 15.951C13.595 15.9201 13.5866 15.8892 13.5775 15.8587C13.5768 15.854 13.576 15.8493 13.5753 15.8446C13.5741 15.8367 13.5729 15.8289 13.5718 15.8212C13.5662 15.8041 13.5609 15.787 13.5557 15.77C13.5541 15.7645 13.5524 15.7589 13.5507 15.7534C13.5453 15.7315 13.5405 15.7097 13.5356 15.6879L13.5346 15.6831C13.5159 15.6209 13.4995 15.5583 13.4842 15.4954C13.4759 15.466 13.4681 15.4365 13.4602 15.407C13.4544 15.3853 13.4486 15.3637 13.4427 15.3421C13.4322 15.2978 13.4206 15.2538 13.409 15.2098C13.399 15.1719 13.389 15.1341 13.3797 15.096C13.371 15.0659 13.363 15.0356 13.355 15.0054C13.3494 14.9843 13.3439 14.9632 13.338 14.9422C13.3338 14.9239 13.3293 14.9058 13.3248 14.8877C13.3204 14.8701 13.316 14.8526 13.3119 14.835C13.3079 14.8212 13.3041 14.8075 13.3002 14.7938C13.2962 14.7793 13.2921 14.7648 13.2879 14.7503C13.2761 14.7094 13.2638 14.6686 13.2507 14.628C13.2539 14.624 13.2593 14.6172 13.2639 14.6114C13.2662 14.6086 13.2683 14.6059 13.2699 14.6039L13.2924 14.6026C13.3199 14.5944 13.3475 14.5868 13.3752 14.5793C13.3988 14.5728 13.4225 14.5664 13.446 14.5595C13.4734 14.552 13.5008 14.5443 13.5283 14.5366C13.5586 14.5281 13.5889 14.5196 13.6192 14.5113C13.6372 14.506 13.6555 14.5011 13.6738 14.4966C13.7159 14.4833 13.7582 14.4706 13.8004 14.4579C13.8335 14.448 13.8666 14.4381 13.8996 14.4278C13.9048 14.426 13.9101 14.4241 13.9153 14.4222C13.9608 14.4059 14.0061 14.3897 14.0522 14.3748C14.0763 14.3655 14.1005 14.3564 14.1248 14.3474C14.1519 14.3373 14.179 14.3272 14.206 14.3167C14.2717 14.2915 14.3369 14.2649 14.402 14.2383C14.4123 14.234 14.4226 14.2298 14.433 14.2256L14.448 14.2222C14.4821 14.2063 14.5169 14.1914 14.5516 14.1767C14.5689 14.1691 14.5861 14.1614 14.6032 14.1537C14.6376 14.1382 14.672 14.1228 14.7068 14.1083C14.7464 14.0918 14.7852 14.0738 14.824 14.0558C14.8366 14.0499 14.8492 14.0441 14.8618 14.0383C14.9289 14.0131 14.9935 13.9816 15.0566 13.9472L15.0788 13.9507L15.081 13.9375C15.0974 13.9315 15.1137 13.9252 15.13 13.9188C15.1388 13.9154 15.1477 13.9119 15.1566 13.9085C15.1796 13.8962 15.203 13.8843 15.2265 13.8725C15.2315 13.87 15.2364 13.8675 15.2414 13.865C15.2776 13.8466 15.3139 13.8282 15.3497 13.8086C15.3556 13.8095 15.3677 13.811 15.3737 13.8117L15.3765 13.7898L15.4075 13.7967L15.4106 13.7728L15.4419 13.7777L15.4438 13.7652C15.5151 13.7361 15.5822 13.6984 15.6493 13.6608C15.6877 13.6392 15.7261 13.6177 15.7652 13.5978C15.8682 13.5438 15.9648 13.4791 16.0612 13.4144C16.0773 13.4037 16.0933 13.3929 16.1093 13.3822C16.5086 13.1024 16.8548 12.753 17.1536 12.369C17.2821 12.1973 17.3892 12.0078 17.4454 11.7998C17.4502 11.7751 17.4551 11.7504 17.4611 11.7262C17.4617 11.7229 17.4622 11.7195 17.4628 11.7162C17.4679 11.6845 17.473 11.6529 17.4805 11.6218C17.4825 11.5986 17.4836 11.5753 17.4847 11.552C17.4868 11.5064 17.4889 11.4608 17.4978 11.416L17.499 11.3648C17.4883 11.3099 17.4863 11.2542 17.4844 11.1985C17.4837 11.1788 17.483 11.159 17.4819 11.1393C17.4681 11.0707 17.456 11.0016 17.4461 10.9324C17.4393 10.9091 17.4335 10.8859 17.4279 10.8626C17.4219 10.8396 17.4165 10.8165 17.4117 10.7935C17.4062 10.7767 17.4011 10.7599 17.3959 10.7431C17.3924 10.7317 17.3889 10.7203 17.3854 10.709C17.3834 10.7024 17.3815 10.6958 17.3795 10.6892C17.3726 10.6662 17.3657 10.6433 17.3594 10.6201C17.3516 10.6002 17.344 10.5802 17.3364 10.5603C17.3265 10.5345 17.3166 10.5087 17.3065 10.4831C17.2951 10.4535 17.284 10.424 17.2733 10.3944C17.2627 10.3777 17.2523 10.3611 17.2421 10.3445C17.2427 10.339 17.2442 10.3289 17.2451 10.3225L17.2454 10.3204L17.2236 10.3173L17.2274 10.2919L17.2022 10.2586C17.1459 10.1464 17.0755 10.0424 16.9987 9.94334C16.8117 9.7185 16.573 9.53772 16.3026 9.42486C16.2064 9.38511 16.1079 9.35176 16.0081 9.32272C15.9846 9.31788 15.9612 9.31287 15.9382 9.30751C15.9274 9.30443 15.9165 9.30145 15.9057 9.29848C15.8929 9.29497 15.8801 9.29147 15.8675 9.28781C15.8334 9.28297 15.7997 9.27762 15.7664 9.27018C15.6 9.2427 15.4322 9.22629 15.2635 9.22473C15.2141 9.21551 15.164 9.2157 15.1142 9.21589C15.1118 9.2159 15.1093 9.21591 15.1068 9.21592C15.0974 9.21609 15.088 9.21624 15.0786 9.21639C15.0594 9.2167 15.0402 9.21701 15.0212 9.21747C14.9606 9.22906 14.8992 9.22989 14.8377 9.23073C14.8057 9.23116 14.7736 9.23159 14.7418 9.23354C14.6425 9.24421 14.5432 9.25541 14.444 9.26661C14.3825 9.27355 14.3209 9.28048 14.2594 9.28729C14.2246 9.29473 14.1895 9.30125 14.1545 9.30777C14.1195 9.3143 14.0845 9.32082 14.0496 9.32825L14.0259 9.29334C14.0249 9.28038 14.0238 9.26742 14.0229 9.25463C14.0157 9.23147 14.0091 9.20814 14.0029 9.18481C13.9942 9.15006 13.9853 9.11536 13.9764 9.08066C13.9675 9.04597 13.9586 9.01128 13.9499 8.97655C13.9448 8.95814 13.9402 8.93985 13.9357 8.92158C13.9347 8.91772 13.9338 8.91387 13.9328 8.91001C13.9266 8.88789 13.9207 8.86577 13.9152 8.84365C13.9023 8.79427 13.889 8.74502 13.8757 8.69579C13.8544 8.61663 13.8331 8.53749 13.8134 8.4579C13.8013 8.41297 13.7896 8.36786 13.7788 8.32258C13.7733 8.30213 13.7678 8.28168 13.7623 8.26123C13.7317 8.14811 13.7012 8.03498 13.6733 7.9211C13.668 7.9028 13.6632 7.88427 13.6584 7.86579C13.6573 7.86158 13.6562 7.85738 13.6552 7.85318C13.6493 7.83141 13.6439 7.80963 13.6387 7.78768C13.6325 7.76645 13.6267 7.74507 13.6209 7.72382L13.6195 7.71855L13.6172 7.70971C13.6002 7.64404 13.5831 7.57834 13.5693 7.51185C13.5631 7.48973 13.5572 7.46743 13.5519 7.44531C13.5039 7.44982 13.4578 7.46265 13.4116 7.47549ZM13.6952 10.8505C13.6989 10.8501 13.7025 10.8497 13.7062 10.8493C13.9169 10.8223 14.1316 10.807 14.3432 10.8334C14.3769 10.8364 14.4102 10.842 14.4436 10.8475C14.4681 10.8516 14.4927 10.8557 14.5174 10.8588C14.6137 10.8818 14.7098 10.91 14.7975 10.9568L14.8193 10.9571L14.8234 10.968C15.008 11.0595 15.1596 11.2167 15.2431 11.4049L15.2538 11.4099L15.2557 11.4307C15.2782 11.4784 15.2961 11.5283 15.3115 11.579C15.3123 11.5819 15.3131 11.5848 15.3139 11.5877C15.3205 11.6117 15.3272 11.636 15.3348 11.6599C15.3379 11.6832 15.3412 11.7069 15.3447 11.7304C15.3678 11.8496 15.3602 11.973 15.3369 12.0917C15.3206 12.1434 15.3042 12.1951 15.2855 12.2461C15.2789 12.2599 15.2725 12.2739 15.2665 12.2881L15.2623 12.2934C15.2269 12.362 15.1824 12.4253 15.1367 12.4873C15.0563 12.5796 14.9651 12.6619 14.8675 12.7359C14.8306 12.7628 14.792 12.7872 14.7533 12.8116C14.7201 12.8326 14.6869 12.8536 14.6547 12.8762L14.6323 12.8745L14.6304 12.8966L14.5985 12.8921L14.5954 12.913L14.5746 12.9137C14.5399 12.9339 14.5044 12.9526 14.4682 12.9697C14.4383 12.9844 14.4086 12.9998 14.3793 13.0157L14.3558 13.0138L14.3539 13.026C14.3214 13.0383 14.289 13.0511 14.2568 13.0639L14.2434 13.0699C14.2046 13.0865 14.1651 13.1016 14.1256 13.1166C14.1129 13.1214 14.1002 13.1262 14.0875 13.1311C14.0015 13.1631 13.9141 13.1911 13.8266 13.2189C13.8143 13.2226 13.802 13.2264 13.7897 13.2302C13.7733 13.2353 13.7569 13.2403 13.7404 13.2452C13.7023 13.2567 13.6641 13.2676 13.626 13.2784L13.6183 13.2806C13.578 13.2924 13.5377 13.3038 13.497 13.314C13.4858 13.3171 13.4747 13.3201 13.4635 13.323C13.446 13.3277 13.4285 13.3324 13.411 13.3375C13.3987 13.3406 13.3863 13.3437 13.3739 13.3468C13.3167 13.361 13.2595 13.3753 13.2028 13.3912C13.1855 13.3936 13.1683 13.3962 13.1512 13.399C13.1289 13.4056 13.1066 13.4121 13.0843 13.4184C13.0372 13.4317 12.9896 13.4438 12.9414 13.4512L12.9306 13.3869C12.9244 13.3632 12.9189 13.3396 12.9137 13.3159C12.9108 13.3062 12.9081 13.2966 12.9053 13.2869C12.8997 13.2673 12.894 13.2478 12.8879 13.2284L12.8803 13.1799C12.8728 13.157 12.8659 13.1341 12.8594 13.1112C12.8536 13.0884 12.8485 13.0656 12.8436 13.043C12.8254 12.9785 12.808 12.9139 12.7915 12.8489C12.7708 12.7789 12.7528 12.7081 12.7347 12.6374C12.7176 12.5703 12.7005 12.5033 12.6812 12.4369C12.6639 12.3656 12.6454 12.2946 12.6268 12.2237C12.6121 12.1673 12.5973 12.111 12.5832 12.0544C12.572 12.0142 12.5616 11.9737 12.5512 11.9332C12.5435 11.9035 12.5359 11.8737 12.5279 11.8441C12.5247 11.8318 12.5214 11.8196 12.5182 11.8074C12.5111 11.7807 12.5041 11.7541 12.4974 11.7273C12.4914 11.707 12.486 11.6866 12.4806 11.6664C12.4799 11.6639 12.4793 11.6613 12.4786 11.6588C12.4738 11.6412 12.4694 11.6234 12.465 11.6058C12.4637 11.6006 12.4624 11.5954 12.4611 11.5902C12.4555 11.5696 12.4505 11.5488 12.4455 11.5283C12.4449 11.5259 12.4444 11.5236 12.4438 11.5212C12.4322 11.4799 12.4211 11.4386 12.4111 11.3972C12.4047 11.3742 12.399 11.3514 12.3933 11.3284C12.3895 11.3162 12.3858 11.304 12.382 11.2918C12.3711 11.256 12.3601 11.2202 12.348 11.1849C12.3502 11.1831 12.3524 11.1812 12.3546 11.1793C12.3643 11.1712 12.3739 11.1631 12.3838 11.1552C12.4505 11.1457 12.5149 11.1265 12.5794 11.1073C12.6198 11.0952 12.6602 11.0831 12.7012 11.0735C12.8049 11.0425 12.9088 11.0126 13.014 10.987C13.0375 10.9808 13.0612 10.975 13.0848 10.9691C13.1133 10.962 13.1419 10.9549 13.1702 10.9473C13.1956 10.9423 13.2208 10.9368 13.2461 10.9313C13.2665 10.9269 13.2869 10.9224 13.3074 10.9183C13.336 10.9113 13.365 10.906 13.3941 10.9008C13.4232 10.8944 13.4524 10.8892 13.4818 10.884C13.5157 10.8766 13.5501 10.8712 13.5846 10.8662C13.6211 10.859 13.6582 10.8548 13.6952 10.8505Z"
    fill="white" />
  <path fill-rule="evenodd" clip-rule="evenodd"
    d="M17.4803 12.7344C17.5141 12.7352 17.5478 12.7377 17.5817 12.7408C17.6329 12.7603 17.685 12.7779 17.7374 12.795C17.944 12.8728 18.1388 12.9813 18.3102 13.1208C18.4368 13.2314 18.5557 13.3522 18.6546 13.4888C18.7552 13.63 18.8392 13.7827 18.9089 13.9414C18.9224 13.9749 18.9363 14.0086 18.951 14.0418C18.9653 14.0833 18.9802 14.1246 18.9948 14.1662C19.0091 14.2112 19.0226 14.2566 19.0366 14.3019C19.0418 14.3252 19.0477 14.3487 19.0539 14.3721C19.0593 14.3949 19.065 14.4179 19.0712 14.4409C19.0766 14.4632 19.0819 14.4853 19.0885 14.5077C19.1089 14.6168 19.1255 14.7265 19.143 14.8363C19.1451 14.8944 19.1492 14.9524 19.16 15.0098C19.1648 15.1538 19.1641 15.2979 19.1584 15.442C19.1439 15.5224 19.133 15.6035 19.1235 15.6847C19.1114 15.731 19.1003 15.7777 19.0894 15.8245C19.0762 15.8644 19.0638 15.9049 19.0524 15.9455C19.0468 15.9624 19.0416 15.9797 19.0366 15.9972C19.0252 16.0264 19.0143 16.0559 19.0041 16.0858C18.9882 16.1197 18.9723 16.1534 18.9553 16.1869C18.9555 16.1928 18.9562 16.2047 18.9564 16.2106L18.9356 16.2144C18.9368 16.222 18.9394 16.2372 18.9408 16.2448L18.9193 16.2479C18.9195 16.2536 18.9198 16.2652 18.92 16.2709C18.7572 16.5642 18.5337 16.8212 18.2699 17.0279C18.2467 17.0452 18.2237 17.0626 18.2005 17.0799C18.0462 17.198 17.8808 17.3015 17.7095 17.3933L17.7075 17.4059C17.7018 17.4053 17.6902 17.4045 17.6845 17.404C17.6232 17.4432 17.5585 17.4767 17.4936 17.5094C17.4878 17.5087 17.4762 17.5077 17.4703 17.5071L17.467 17.5281C17.4609 17.5275 17.449 17.5267 17.4429 17.5262C17.4327 17.532 17.4122 17.5436 17.4018 17.5495L17.3978 17.5559C17.3872 17.5599 17.3663 17.5678 17.3559 17.572C17.3475 17.5778 17.3305 17.5898 17.322 17.5956C17.3174 17.5953 17.308 17.5948 17.3033 17.5944C17.2684 17.6117 17.2331 17.6283 17.1983 17.6456L17.1859 17.6482C17.0987 17.686 17.0105 17.7209 16.9222 17.7558C16.8086 17.8013 16.6927 17.8407 16.5781 17.8837C16.5081 17.9069 16.4373 17.9281 16.3681 17.9536C16.3484 17.9565 16.3287 17.9598 16.3093 17.9631C16.3095 17.9809 16.3098 17.999 16.3103 18.0172C16.3356 18.084 16.3531 18.1535 16.3719 18.2223C16.4022 18.3511 16.439 18.4781 16.4703 18.6065C16.4762 18.6288 16.4823 18.6514 16.4882 18.6741C16.4961 18.7024 16.5034 18.7311 16.5117 18.7598C16.5212 18.8007 16.5323 18.8417 16.5432 18.8827C16.5492 18.9051 16.5556 18.9276 16.5624 18.9502C16.5676 18.9727 16.5729 18.9952 16.5792 19.0176C16.5849 19.0411 16.5908 19.0645 16.5975 19.0882C16.6075 19.1293 16.6184 19.1704 16.6297 19.2114C16.6357 19.2344 16.642 19.2575 16.6485 19.2809C16.6539 19.3035 16.6593 19.3265 16.6657 19.3493C16.6712 19.3723 16.6769 19.3956 16.6833 19.4188C16.6888 19.4407 16.6949 19.4627 16.7013 19.4848C16.7158 19.5434 16.7323 19.6016 16.7466 19.6606C16.7584 19.7015 16.7696 19.7427 16.7814 19.784C16.7887 19.8132 16.7942 19.8431 16.7997 19.8731C16.7662 19.884 16.7323 19.8942 16.6987 19.9046C16.6515 19.9136 16.6051 19.9252 16.5589 19.9378C16.5357 19.9436 16.5127 19.9495 16.4899 19.9563C16.4665 19.9616 16.4437 19.9673 16.4209 19.9737C16.3973 19.9792 16.3743 19.9853 16.3515 19.9919C16.3294 19.9972 16.3077 20.0029 16.2861 20.009C16.2038 20.0289 16.1223 20.0511 16.0403 20.0721C16.0112 20.0802 15.982 20.0874 15.9531 20.0957C15.9304 20.1009 15.9081 20.1064 15.8858 20.1127C15.8091 20.1317 15.7339 20.1555 15.6569 20.1737C15.6117 20.0022 15.5678 19.8304 15.5204 19.6597C15.5142 19.6371 15.5079 19.6148 15.5017 19.5926C15.4958 19.5688 15.4901 19.5453 15.4839 19.522C15.463 19.4412 15.441 19.3607 15.4206 19.2798C15.3941 19.1884 15.373 19.0956 15.3458 19.0045C15.3401 18.9817 15.3343 18.9591 15.3284 18.9368C15.323 18.9184 15.3175 18.9003 15.3119 18.8825C15.3062 18.8588 15.3009 18.8355 15.2948 18.8123C15.2888 18.7904 15.2827 18.7689 15.2765 18.7475C15.2543 18.6594 15.2315 18.5716 15.2068 18.4841C15.2012 18.4613 15.196 18.439 15.19 18.4167C15.1756 18.3585 15.1592 18.3011 15.1441 18.2432C15.1308 18.1964 15.1185 18.1492 15.1049 18.1027C15.099 18.0804 15.0931 18.0583 15.087 18.0365C15.0661 17.9549 15.0433 17.8741 15.0241 17.7921C15.0154 17.764 15.0076 17.7356 14.9993 17.7078C14.994 17.6845 14.9889 17.6616 14.9832 17.6388C14.967 17.5809 14.9505 17.523 14.9367 17.4645C14.9234 17.4188 14.9106 17.3732 14.8973 17.3277C14.8912 17.3037 14.8853 17.2797 14.8789 17.256C14.8732 17.2337 14.8672 17.2118 14.8613 17.1898C14.8398 17.0941 14.8057 17.0015 14.7852 16.9055C14.832 16.8832 14.8826 16.8706 14.9324 16.8565C14.95 16.8513 14.9677 16.8463 14.9855 16.8411C15.0146 16.8323 15.0438 16.8231 15.073 16.8141C15.1075 16.8018 15.1422 16.7903 15.1772 16.7789C15.2166 16.7649 15.2566 16.7512 15.296 16.7369C15.3382 16.7211 15.3804 16.7052 15.4232 16.6911C15.4498 16.6793 15.4766 16.6677 15.5036 16.6561C15.5353 16.6439 15.5673 16.6323 15.5995 16.6212L15.6014 16.6072C15.6092 16.6086 15.6247 16.6117 15.6325 16.6133L15.6358 16.5913C15.6413 16.5917 15.6526 16.5924 15.6583 16.5929C15.7008 16.5715 15.7444 16.5518 15.7891 16.5347L15.7924 16.5296C15.8026 16.5239 15.823 16.5129 15.833 16.5073C15.8373 16.5068 15.846 16.5058 15.8503 16.5053C16.0195 16.4157 16.1837 16.3165 16.3349 16.1988C16.5523 16.0278 16.7342 15.8 16.8034 15.5281C16.8177 15.4317 16.8319 15.3345 16.8236 15.2369C16.8151 15.1963 16.8101 15.1553 16.8061 15.1142C16.7939 15.0679 16.7819 15.0216 16.7712 14.9751C16.747 14.9106 16.7224 14.8463 16.6909 14.7851C16.6906 14.7812 16.6895 14.7734 16.689 14.7696C16.5854 14.5968 16.442 14.4447 16.2589 14.3557L16.2548 14.3432C16.247 14.3444 16.2318 14.347 16.224 14.3482L16.2223 14.3334C16.1669 14.3112 16.1115 14.2898 16.0553 14.2706C16.0332 14.2644 16.011 14.2585 15.9889 14.253C15.9654 14.2457 15.9418 14.2392 15.9186 14.2323C15.879 14.2264 15.8392 14.2219 15.8003 14.2141C15.7673 14.21 15.7342 14.2067 15.7012 14.2036C15.7029 14.1916 15.7046 14.1797 15.7067 14.1681C15.9697 14.0183 16.2271 13.8579 16.4721 13.6799C16.5662 13.6116 16.6574 13.5394 16.7487 13.4677C16.9381 13.314 17.1066 13.1372 17.2774 12.9637C17.3497 12.8916 17.4151 12.8128 17.4803 12.7344Z"
    fill="white" />
  <defs>
    <radialGradient id="paint0_radial_2586_15626" cx="0" cy="0" r="1" gradientUnits="userSpaceOnUse"
      gradientTransform="translate(14 14) rotate(90) scale(14)">
      <stop stop-color="#FF00C7" />
      <stop offset="0.848958" stop-color="#FF00C7" stop-opacity="0.2" />
    </radialGradient>
  </defs>
</svg>