<?xml version="1.0" encoding="UTF-8" standalone="no"?>
<!-- Svg Vector Icons : http://www.onlinewebfonts.com/icon -->

<svg
   version="1.1"
   x="0px"
   y="0px"
   viewBox="0 0 1000 1000"
   enable-background="new 0 0 1000 1000"
   xml:space="preserve"
   id="svg8"
   sodipodi:docname="confirmed_white.svg"
   inkscape:version="1.1.2 (0a00cf5339, 2022-02-04)"
   xmlns:inkscape="http://www.inkscape.org/namespaces/inkscape"
   xmlns:sodipodi="http://sodipodi.sourceforge.net/DTD/sodipodi-0.dtd"
   xmlns="http://www.w3.org/2000/svg"
   xmlns:svg="http://www.w3.org/2000/svg"><defs
   id="defs12" /><sodipodi:namedview
   id="namedview10"
   pagecolor="#ffffff"
   bordercolor="#666666"
   borderopacity="1.0"
   inkscape:pageshadow="2"
   inkscape:pageopacity="0.0"
   inkscape:pagecheckerboard="0"
   showgrid="false"
   inkscape:zoom="0.422"
   inkscape:cx="1234.5972"
   inkscape:cy="863.74408"
   inkscape:window-width="1841"
   inkscape:window-height="1016"
   inkscape:window-x="1999"
   inkscape:window-y="27"
   inkscape:window-maximized="1"
   inkscape:current-layer="svg8" />
<metadata
   id="metadata2"> Svg Vector Icons : http://www.onlinewebfonts.com/icon </metadata>
<g
   id="g6"
   style="fill:#ffffff;fill-opacity:1"><path
     d="M500,10C229.4,10,10,229.4,10,500c0,270.6,219.4,490,490,490c270.6,0,490-219.3,490-490C990,229.4,770.7,10,500,10L500,10L500,10z M796,428.2L501.9,722.3c-23.8,23.8-62.8,23.8-86.6,0l-150-150.1c-23.8-23.8-23.8-62.8,0-86.6l10.9-10.8c23.8-23.8,62.8-23.8,86.6,0l52.6,52.6c21.6,21.6,42.2,42.5,42.2,42.5s21.3-19.4,44.4-42.5l196.6-196.6c23.8-23.8,62.8-23.8,86.6,0.1l10.8,10.8C819.8,365.3,819.8,404.4,796,428.2L796,428.2L796,428.2z"
     id="path4"
     style="fill:#ffffff;fill-opacity:1" /></g>
</svg>
