<?xml version="1.0" encoding="UTF-8" standalone="no"?>
<!-- Generator: Adobe Illustrator 19.0.0, SVG Export Plug-In . SVG Version: 6.00 Build 0)  -->

<svg
   version="1.1"
   id="Layer_1"
   x="0px"
   y="0px"
   viewBox="0 0 460 460"
   style="enable-background:new 0 0 460 460;"
   xml:space="preserve"
   sodipodi:docname="copyIcon.svg"
   inkscape:version="1.1.2 (0a00cf5339, 2022-02-04)"
   xmlns:inkscape="http://www.inkscape.org/namespaces/inkscape"
   xmlns:sodipodi="http://sodipodi.sourceforge.net/DTD/sodipodi-0.dtd"
   xmlns="http://www.w3.org/2000/svg"
   xmlns:svg="http://www.w3.org/2000/svg"><defs
   id="defs45" /><sodipodi:namedview
   id="namedview43"
   pagecolor="#ffffff"
   bordercolor="#666666"
   borderopacity="1.0"
   inkscape:pageshadow="2"
   inkscape:pageopacity="0.0"
   inkscape:pagecheckerboard="0"
   showgrid="false"
   inkscape:zoom="1.5630435"
   inkscape:cx="229.68011"
   inkscape:cy="230"
   inkscape:window-width="1845"
   inkscape:window-height="1016"
   inkscape:window-x="1995"
   inkscape:window-y="27"
   inkscape:window-maximized="1"
   inkscape:current-layer="g8" />
<g
   id="g10">
	<g
   id="g8">
		<g
   id="g6"
   style="fill:#ffffff;fill-opacity:1">
			<path
   d="M425.934,0H171.662c-18.122,0-32.864,14.743-32.864,32.864v77.134h30V32.864c0-1.579,1.285-2.864,2.864-2.864h254.272     c1.579,0,2.864,1.285,2.864,2.864v254.272c0,1.58-1.285,2.865-2.864,2.865h-74.729v30h74.729     c18.121,0,32.864-14.743,32.864-32.865V32.864C458.797,14.743,444.055,0,425.934,0z"
   id="path2"
   style="fill:#000;fill-opacity:1" />
			<path
   d="M288.339,139.998H34.068c-18.122,0-32.865,14.743-32.865,32.865v254.272C1.204,445.257,15.946,460,34.068,460h254.272     c18.122,0,32.865-14.743,32.865-32.864V172.863C321.206,154.741,306.461,139.998,288.339,139.998z M288.341,430H34.068     c-1.58,0-2.865-1.285-2.865-2.864V172.863c0-1.58,1.285-2.865,2.865-2.865h254.272c1.58,0,2.865,1.285,2.865,2.865v254.273h0.001     C291.206,428.715,289.92,430,288.341,430z"
   id="path4"
   style="fill:#000;fill-opacity:1" />
		</g>
	</g>
</g>
<g
   id="g12">
</g>
<g
   id="g14">
</g>
<g
   id="g16">
</g>
<g
   id="g18">
</g>
<g
   id="g20">
</g>
<g
   id="g22">
</g>
<g
   id="g24">
</g>
<g
   id="g26">
</g>
<g
   id="g28">
</g>
<g
   id="g30">
</g>
<g
   id="g32">
</g>
<g
   id="g34">
</g>
<g
   id="g36">
</g>
<g
   id="g38">
</g>
<g
   id="g40">
</g>
</svg>
