<svg width="28" height="28" viewBox="0 0 28 28" fill="none" xmlns="http://www.w3.org/2000/svg">
  <path fill-rule="evenodd" clip-rule="evenodd"
    d="M14 28C21.732 28 28 21.732 28 14C28 6.26801 21.732 0 14 0C6.26801 0 0 6.26801 0 14C0 21.732 6.26801 28 14 28Z"
    fill="url(#paint0_radial_2586_15629)" />
  <path fill-rule="evenodd" clip-rule="evenodd"
    d="M12.7726 7.53906C13.5415 7.53906 14.3075 7.53906 15.0764 7.53906C15.0312 8.05919 14.9831 8.58214 14.9407 9.10227C15.8368 9.16728 16.7103 9.45562 17.4961 9.88246C17.1569 10.7361 16.8149 11.5898 16.4728 12.4435C15.8114 11.881 14.9407 11.57 14.0729 11.5813C13.8552 11.587 13.6291 11.6294 13.4482 11.7538C13.3295 11.8358 13.2418 11.963 13.2164 12.1043C13.1966 12.2174 13.2023 12.3446 13.2644 12.4463C13.3351 12.5594 13.4595 12.6273 13.5839 12.6697C13.8383 12.7601 14.1125 12.7658 14.3782 12.794C15.0029 12.8704 15.6305 12.9778 16.2213 13.2011C16.6792 13.3764 17.1173 13.6392 17.4311 14.0237C17.7279 14.377 17.9004 14.8237 17.9654 15.2816C18.0417 15.8102 18.0191 16.3586 17.8551 16.8731C17.7279 17.2858 17.5103 17.6702 17.2276 17.9953C16.6424 18.6737 15.7831 19.0808 14.9011 19.1854C14.9294 19.7422 14.9633 20.2963 14.9944 20.8532C14.2651 20.8532 13.5386 20.8532 12.8122 20.8532C12.8404 20.3019 12.8772 19.7507 12.9026 19.1995C12.3175 19.1797 11.738 19.0497 11.1924 18.8433C10.6638 18.6426 10.1607 18.3769 9.69141 18.066C10.0363 17.1784 10.3811 16.2908 10.7288 15.4003C11.1218 15.7311 11.5401 16.0392 11.9981 16.2738C12.4899 16.5254 13.0355 16.6865 13.5895 16.6922C13.8524 16.695 14.1238 16.6808 14.3725 16.5904C14.5252 16.5339 14.675 16.4349 14.7429 16.2794C14.8135 16.1155 14.8079 15.9091 14.7004 15.7621C14.6241 15.6632 14.5167 15.5954 14.4036 15.5473C14.251 15.4851 14.0927 15.4512 13.9316 15.4258C13.3379 15.3297 12.7415 15.2505 12.1677 15.0639C11.7069 14.9141 11.2574 14.7049 10.89 14.3827C10.6582 14.182 10.4659 13.9361 10.3303 13.659C10.1267 13.2463 10.0504 12.7799 10.0561 12.322C10.0561 11.8103 10.1607 11.2902 10.4151 10.8407C10.6355 10.4393 10.9719 10.1114 11.3507 9.85984C11.8087 9.55738 12.3203 9.35102 12.8404 9.18424C12.8178 8.63585 12.7952 8.08746 12.7726 7.53906Z"
    fill="white" />
  <defs>
    <radialGradient id="paint0_radial_2586_15629" cx="0" cy="0" r="1" gradientUnits="userSpaceOnUse"
      gradientTransform="translate(14 14) rotate(90) scale(14)">
      <stop offset="0.432292" stop-color="#6ADAFE" />
      <stop offset="0.713542" stop-color="white" />
      <stop offset="1" stop-color="#FF00C7" stop-opacity="0.46" />
    </radialGradient>
  </defs>
</svg>