<?xml version="1.0" encoding="UTF-8" standalone="no"?>
<!-- Svg Vector Icons : http://www.onlinewebfonts.com/icon -->

<svg
   version="1.1"
   x="0px"
   y="0px"
   viewBox="0 0 1000 1000"
   enable-background="new 0 0 1000 1000"
   xml:space="preserve"
   id="svg8"
   sodipodi:docname="loading.svg"
   inkscape:version="1.1.2 (0a00cf5339, 2022-02-04)"
   xmlns:inkscape="http://www.inkscape.org/namespaces/inkscape"
   xmlns:sodipodi="http://sodipodi.sourceforge.net/DTD/sodipodi-0.dtd"
   xmlns="http://www.w3.org/2000/svg"
   xmlns:svg="http://www.w3.org/2000/svg"><defs
   id="defs12" /><sodipodi:namedview
   id="namedview10"
   pagecolor="#ffffff"
   bordercolor="#666666"
   borderopacity="1.0"
   inkscape:pageshadow="2"
   inkscape:pageopacity="0.0"
   inkscape:pagecheckerboard="0"
   showgrid="false"
   inkscape:zoom="0.1055"
   inkscape:cx="-123.22275"
   inkscape:cy="763.03317"
   inkscape:window-width="1852"
   inkscape:window-height="1016"
   inkscape:window-x="1988"
   inkscape:window-y="27"
   inkscape:window-maximized="1"
   inkscape:current-layer="g6" />
<metadata
   id="metadata2"> Svg Vector Icons : http://www.onlinewebfonts.com/icon </metadata>
<g
   id="g6"><path
     d="M373.4,140.7c0,72.2,58.5,130.7,130.7,130.7c72.2,0,130.7-58.5,130.7-130.7S576.2,10,504.1,10C431.9,10,373.4,68.5,373.4,140.7z M650.6,255.5c0,72.2,58.5,130.7,130.7,130.7s130.7-58.5,130.7-130.7s-58.5-130.7-130.7-130.7S650.6,183.3,650.6,255.5z M830.8,532.7c0,36.1,29.3,65.3,65.3,65.3c36.1,0,65.3-29.3,65.3-65.3c0-36.1-29.3-65.3-65.3-65.3C860,467.3,830.8,496.6,830.8,532.7z M715.9,809.9c0,36.1,29.3,65.3,65.3,65.3c36.1,0,65.3-29.3,65.3-65.3c0-36.1-29.3-65.3-65.3-65.3C745.2,744.5,715.9,773.8,715.9,809.9z M438.8,924.7c0,36.1,29.3,65.3,65.3,65.3c36.1,0,65.3-29.3,65.3-65.3c0-36.1-29.3-65.3-65.3-65.3C468,859.3,438.8,888.6,438.8,924.7z M161.6,809.9c0,36.1,29.3,65.3,65.3,65.3c36.1,0,65.3-29.3,65.3-65.3c0-36.1-29.3-65.3-65.3-65.3C190.8,744.5,161.6,773.8,161.6,809.9z M128.9,255.5c0,54.1,43.9,98,98,98c54.1,0,98-43.9,98-98s-43.9-98-98-98C172.8,157.5,128.9,201.4,128.9,255.5z M38.6,532.7c0,40.6,32.9,73.5,73.5,73.5s73.5-32.9,73.5-73.5c0-40.6-32.9-73.5-73.5-73.5S38.6,492.1,38.6,532.7L38.6,532.7z"
     id="path4"
     style="fill:#ffffff;fill-opacity:1" /></g>
</svg>
