<svg width="75" height="75" viewBox="0 0 75 75" fill="none" xmlns="http://www.w3.org/2000/svg">
<rect x="2.54297" y="2.54248" width="71.1864" height="69.9153" rx="5.08475" fill="url(#paint0_linear_1322_9553)"/>
<path d="M13.5383 25.2332H25.8688V37.5637H14.6188C14.0221 37.5637 13.5383 37.0799 13.5383 36.4832V25.2332Z" fill="#7E18FF" stroke="#1F1F1F" stroke-width="0.381356"/>
<rect x="25.8694" y="37.5637" width="12.3305" height="12.3305" fill="#7E18FF" stroke="#1F1F1F" stroke-width="0.381356"/>
<path d="M38.1995 37.5637H49.4495C50.0462 37.5637 50.53 38.0475 50.53 38.6442V48.8137C50.53 49.4105 50.0462 49.8942 49.4495 49.8942H38.1995V37.5637Z" fill="#00FF84" stroke="#1F1F1F" stroke-width="0.381356"/>
<path d="M14.6188 12.9026H25.8688V25.2331H13.5383V13.9831C13.5383 13.3864 14.0221 12.9026 14.6188 12.9026Z" fill="#7E18FF" stroke="#1F1F1F" stroke-width="0.381356"/>
<rect x="25.8694" y="12.9026" width="12.3305" height="12.3305" fill="#7E18FF" stroke="#1F1F1F" stroke-width="0.381356"/>
<rect x="38.1995" y="12.9026" width="12.3305" height="12.3305" fill="#00FF84" stroke="#1F1F1F" stroke-width="0.381356"/>
<path d="M50.5305 12.9026H61.7805C62.3773 12.9026 62.861 13.3864 62.861 13.9831V24.1526C62.861 24.7493 62.3773 25.2331 61.7805 25.2331H50.5305V12.9026Z" fill="#00FF84" stroke="#1F1F1F" stroke-width="0.381356"/>
<path d="M25.8694 49.8938H38.1999V61.1438C38.1999 61.7406 37.7161 62.2243 37.1194 62.2243H25.8694V49.8938Z" fill="#7E18FF" stroke="#1F1F1F" stroke-width="0.381356"/>
<path d="M14.6188 49.8938H25.8688V62.2243H14.6188C14.0221 62.2243 13.5383 61.7406 13.5383 61.1438V50.9743C13.5383 50.3776 14.0221 49.8938 14.6188 49.8938Z" fill="#7E18FF" stroke="#1F1F1F" stroke-width="0.381356"/>
<mask id="mask0_1322_9553" style="mask-type:alpha" maskUnits="userSpaceOnUse" x="0" y="0" width="75" height="75">
<rect x="2.00893" y="2.00893" width="70.9821" height="70.9821" rx="4.53653" stroke="black" stroke-width="4.01786"/>
</mask>
<g mask="url(#mask0_1322_9553)">
<path d="M7.50018 4.7729V2.04563H10.2275V4.7729H7.50018Z" fill="#7E18FF"/>
<path d="M4.7729 4.7729V2.04563H7.50018V4.7729H4.7729Z" fill="#B4FFDB"/>
<path d="M2.04563 4.7729V2.04563H4.7729V4.7729H2.04563Z" fill="#BD88FF"/>
<path d="M70.2275 4.7729V2.04563H72.9547V4.7729H70.2275Z" fill="#7E18FF"/>
<path d="M67.5002 4.7729V2.04563H70.2275V4.7729H67.5002Z" fill="#7E18FF"/>
<path d="M64.7729 4.7729V2.04563H67.5002V4.7729H64.7729Z" fill="#7E18FF"/>
<path d="M15.682 4.7729V2.04563H18.4093V4.7729H15.682Z" fill="#7E18FF"/>
<path d="M12.9547 4.7729V2.04563H15.682V4.7729H12.9547Z" fill="#BD88FF"/>
<path d="M10.2275 4.7729V2.04563H12.9547V4.7729H10.2275Z" fill="#7E18FF"/>
<path d="M23.8638 4.7729V2.04563H26.5911V4.7729H23.8638Z" fill="#7E18FF"/>
<path d="M21.1365 4.7729V2.04563H23.8638V4.7729H21.1365Z" fill="#B4FFDB"/>
<path d="M18.4093 4.7729V2.04563H21.1365V4.7729H18.4093Z" fill="#B4FFDB"/>
<path d="M32.0456 4.7729V2.04563H34.7729V4.7729H32.0456Z" fill="#7E18FF"/>
<path d="M29.3184 4.7729V2.04563H32.0456V4.7729H29.3184Z" fill="#7E18FF"/>
<path d="M26.5911 4.7729V2.04563H29.3184V4.7729H26.5911Z" fill="#BD88FF"/>
<path d="M40.2275 4.7729V2.04563H42.9547V4.7729H40.2275Z" fill="#BD88FF"/>
<path d="M37.5002 4.7729V2.04563H40.2275V4.7729H37.5002Z" fill="#B4FFDB"/>
<path d="M34.7729 4.7729V2.04563H37.5002V4.7729H34.7729Z" fill="#7E18FF"/>
<path d="M48.4093 4.7729V2.04563H51.1365V4.7729H48.4093Z" fill="#7E18FF"/>
<path d="M45.682 4.7729V2.04563H48.4093V4.7729H45.682Z" fill="#BD88FF"/>
<path d="M42.9547 4.7729V2.04563H45.682V4.7729H42.9547Z" fill="#BD88FF"/>
<path d="M56.5911 4.7729V2.04563H59.3184V4.7729H56.5911Z" fill="#B4FFDB"/>
<path d="M53.8638 4.7729V2.04563H56.5911V4.7729H53.8638Z" fill="#B4FFDB"/>
<path d="M51.1365 4.7729V2.04563H53.8638V4.7729H51.1365Z" fill="#7E18FF"/>
<path d="M64.7729 4.7729V2.04563H67.5002V4.7729H64.7729Z" fill="#7E18FF"/>
<path d="M62.0456 4.7729V2.04563H64.7729V4.7729H62.0456Z" fill="#B4FFDB"/>
<path d="M59.3184 4.7729V2.04563H62.0456V4.7729H59.3184Z" fill="#B4FFDB"/>
<path d="M70.2275 4.7729V2.04563H72.9547V4.7729H70.2275Z" fill="#BD88FF"/>
<path d="M67.5002 4.7729V2.04563H70.2275V4.7729H67.5002Z" fill="#B4FFDB"/>
<path d="M21.1365 2.04563V-0.681641H23.8638V2.04563H21.1365Z" fill="#7E18FF"/>
<path d="M18.4093 2.04563V-0.681641H21.1365V2.04563H18.4093Z" fill="#B4FFDB"/>
<path d="M15.682 2.04563V-0.681641H18.4093V2.04563H15.682Z" fill="#BD88FF"/>
<path d="M29.3184 2.04563V-0.681641H32.0456V2.04563H29.3184Z" fill="#7E18FF"/>
<path d="M26.5911 2.04563V-0.681641H29.3184V2.04563H26.5911Z" fill="#BD88FF"/>
<path d="M23.8638 2.04563V-0.681641H26.5911V2.04563H23.8638Z" fill="#7E18FF"/>
<path d="M37.5002 2.04563V-0.681641H40.2275V2.04563H37.5002Z" fill="#B4FFDB"/>
<path d="M34.7729 2.04563V-0.681641H37.5002V2.04563H34.7729Z" fill="#B4FFDB"/>
<path d="M32.0456 2.04563V-0.681641H34.7729V2.04563H32.0456Z" fill="#B4FFDB"/>
<path d="M45.682 2.04563V-0.681641H48.4093V2.04563H45.682Z" fill="#7E18FF"/>
<path d="M42.9547 2.04563V-0.681641H45.682V2.04563H42.9547Z" fill="#7E18FF"/>
<path d="M40.2275 2.04563V-0.681641H42.9547V2.04563H40.2275Z" fill="#BD88FF"/>
<path d="M53.8638 2.04563V-0.681641H56.5911V2.04563H53.8638Z" fill="#7E18FF"/>
<path d="M51.1365 2.04563V-0.681641H53.8638V2.04563H51.1365Z" fill="#7E18FF"/>
<path d="M48.4093 2.04563V-0.681641H51.1365V2.04563H48.4093Z" fill="#7E18FF"/>
<path d="M62.0456 2.04563V-0.681641H64.7729V2.04563H62.0456Z" fill="#BD88FF"/>
<path d="M59.3184 2.04563V-0.681641H62.0456V2.04563H59.3184Z" fill="#BD88FF"/>
<path d="M56.5911 2.04563V-0.681641H59.3184V2.04563H56.5911Z" fill="#BD88FF"/>
<path d="M70.2275 2.04563V-0.681641H72.9547V2.04563H70.2275Z" fill="#7E18FF"/>
<path d="M72.9547 2.04563V-0.681641H75.682V2.04563H72.9547Z" fill="#7E18FF"/>
<path d="M67.5002 2.04563V-0.681641H70.2275V2.04563H67.5002Z" fill="#B4FFDB"/>
<path d="M64.7729 2.04563V-0.681641H67.5002V2.04563H64.7729Z" fill="#7E18FF"/>
<path d="M12.9547 2.04563V-0.681641H15.682V2.04563H12.9547Z" fill="#7E18FF"/>
<path d="M10.2275 2.04563V-0.681641H12.9547V2.04563H10.2275Z" fill="#7E18FF"/>
<path d="M7.50018 2.04563V-0.681641H10.2275V2.04563H7.50018Z" fill="#7E18FF"/>
<path d="M7.50018 2.04563V-0.681641H10.2275V2.04563H7.50018Z" fill="#7E18FF"/>
<path d="M7.50018 2.04563V-0.681641H10.2275V2.04563H7.50018Z" fill="#7E18FF"/>
<path d="M4.7729 2.04563V-0.681641H7.50018V2.04563H4.7729Z" fill="#B4FFDB"/>
<path d="M2.04563 2.04563V-0.681641H4.7729V2.04563H2.04563Z" fill="#B4FFDB"/>
<path d="M12.9547 2.04563V-0.681641H15.682V2.04563H12.9547Z" fill="#BD88FF"/>
<path d="M10.2275 2.04563V-0.681641H12.9547V2.04563H10.2275Z" fill="#BD88FF"/>
<path d="M4.7729 67.5002H2.04563V64.7729H4.7729V67.5002Z" fill="#7E18FF"/>
<path d="M4.7729 70.2275H2.04563V67.5002H4.7729V70.2275Z" fill="#7E18FF"/>
<path d="M4.7729 72.9547H2.04563V70.2275H4.7729V72.9547Z" fill="#BD88FF"/>
<path d="M4.7729 4.7729H2.04563V2.04563H4.7729V4.7729Z" fill="#7E18FF"/>
<path d="M4.7729 7.50018H2.04563V4.7729H4.7729V7.50018Z" fill="#7E18FF"/>
<path d="M4.7729 10.2275H2.04563V7.50018H4.7729V10.2275Z" fill="#7E18FF"/>
<path d="M4.7729 59.3184H2.04563V56.5911H4.7729V59.3184Z" fill="#7E18FF"/>
<path d="M4.7729 62.0456H2.04563V59.3184H4.7729V62.0456Z" fill="#BD88FF"/>
<path d="M4.7729 64.7729H2.04563V62.0456H4.7729V64.7729Z" fill="#7E18FF"/>
<path d="M4.7729 51.1365H2.04563V48.4093H4.7729V51.1365Z" fill="#7E18FF"/>
<path d="M4.7729 53.8638H2.04563V51.1365H4.7729V53.8638Z" fill="#B4FFDB"/>
<path d="M4.7729 56.5911H2.04563V53.8638H4.7729V56.5911Z" fill="#B4FFDB"/>
<path d="M4.7729 42.9547H2.04563V40.2275H4.7729V42.9547Z" fill="#7E18FF"/>
<path d="M4.7729 45.682H2.04563V42.9547H4.7729V45.682Z" fill="#B4FFDB"/>
<path d="M4.7729 48.4093H2.04563V45.682H4.7729V48.4093Z" fill="#BD88FF"/>
<path d="M4.7729 34.7729H2.04563V32.0456H4.7729V34.7729Z" fill="#BD88FF"/>
<path d="M4.7729 37.5002H2.04563V34.7729H4.7729V37.5002Z" fill="#7E18FF"/>
<path d="M4.7729 40.2275H2.04563V37.5002H4.7729V40.2275Z" fill="#7E18FF"/>
<path d="M4.7729 26.5911H2.04563V23.8638H4.7729V26.5911Z" fill="#7E18FF"/>
<path d="M4.7729 29.3184H2.04563V26.5911H4.7729V29.3184Z" fill="#BD88FF"/>
<path d="M4.7729 32.0456H2.04563V29.3184H4.7729V32.0456Z" fill="#BD88FF"/>
<path d="M4.7729 18.4093H2.04563V15.682H4.7729V18.4093Z" fill="#7E18FF"/>
<path d="M4.7729 21.1365H2.04563V18.4093H4.7729V21.1365Z" fill="#7E18FF"/>
<path d="M4.7729 23.8638H2.04563V21.1365H4.7729V23.8638Z" fill="#7E18FF"/>
<path d="M4.7729 10.2275H2.04563V7.50018H4.7729V10.2275Z" fill="#7E18FF"/>
<path d="M4.7729 12.9547H2.04563V10.2275H4.7729V12.9547Z" fill="#B4FFDB"/>
<path d="M4.7729 15.682H2.04563V12.9547H4.7729V15.682Z" fill="#B4FFDB"/>
<path d="M4.7729 4.7729H2.04563V2.04563H4.7729V4.7729Z" fill="#BD88FF"/>
<path d="M4.7729 7.50018H2.04563V4.7729H4.7729V7.50018Z" fill="#BD88FF"/>
<path d="M2.04563 53.8638H-0.681641V51.1365H2.04563V53.8638Z" fill="#7E18FF"/>
<path d="M2.04563 56.5911H-0.681641V53.8638H2.04563V56.5911Z" fill="#B4FFDB"/>
<path d="M2.04563 59.3184H-0.681641V56.5911H2.04563V59.3184Z" fill="#BD88FF"/>
<path d="M2.04563 45.682H-0.681641V42.9547H2.04563V45.682Z" fill="#B4FFDB"/>
<path d="M2.04563 48.4093H-0.681641V45.682H2.04563V48.4093Z" fill="#BD88FF"/>
<path d="M2.04563 51.1365H-0.681641V48.4093H2.04563V51.1365Z" fill="#7E18FF"/>
<path d="M2.04563 37.5002H-0.681641V34.7729H2.04563V37.5002Z" fill="#7E18FF"/>
<path d="M2.04563 40.2275H-0.681641V37.5002H2.04563V40.2275Z" fill="#B4FFDB"/>
<path d="M2.04563 42.9547H-0.681641V40.2275H2.04563V42.9547Z" fill="#B4FFDB"/>
<path d="M2.04563 29.3184H-0.681641V26.5911H2.04563V29.3184Z" fill="#B4FFDB"/>
<path d="M2.04563 32.0456H-0.681641V29.3184H2.04563V32.0456Z" fill="#B4FFDB"/>
<path d="M2.04563 34.7729H-0.681641V32.0456H2.04563V34.7729Z" fill="#BD88FF"/>
<path d="M2.04563 21.1365H-0.681641V18.4093H2.04563V21.1365Z" fill="#7E18FF"/>
<path d="M2.04563 23.8638H-0.681641V21.1365H2.04563V23.8638Z" fill="#B4FFDB"/>
<path d="M2.04563 26.5911H-0.681641V23.8638H2.04563V26.5911Z" fill="#B4FFDB"/>
<path d="M2.04563 12.9547H-0.681641V10.2275H2.04563V12.9547Z" fill="#7E18FF"/>
<path d="M2.04563 15.682H-0.681641V12.9547H2.04563V15.682Z" fill="#BD88FF"/>
<path d="M2.04563 18.4093H-0.681641V15.682H2.04563V18.4093Z" fill="#BD88FF"/>
<path d="M2.04563 4.7729H-0.681641V2.04563H2.04563V4.7729Z" fill="#7E18FF"/>
<path d="M2.04563 2.04563H-0.681641V-0.681641H2.04563V2.04563Z" fill="#7E18FF"/>
<path d="M2.04563 7.50018H-0.681641V4.7729H2.04563V7.50018Z" fill="#7E18FF"/>
<path d="M2.04563 10.2275H-0.681641V7.50018H2.04563V10.2275Z" fill="#7E18FF"/>
<path d="M2.04563 62.0456H-0.681641V59.3184H2.04563V62.0456Z" fill="#7E18FF"/>
<path d="M2.04563 64.7729H-0.681641V62.0456H2.04563V64.7729Z" fill="#7E18FF"/>
<path d="M2.04563 67.5002H-0.681641V64.7729H2.04563V67.5002Z" fill="#7E18FF"/>
<path d="M2.04563 67.5002H-0.681641V64.7729H2.04563V67.5002Z" fill="#7E18FF"/>
<path d="M2.04563 67.5002H-0.681641V64.7729H2.04563V67.5002Z" fill="#7E18FF"/>
<path d="M2.04563 70.2275H-0.681641V67.5002H2.04563V70.2275Z" fill="#B4FFDB"/>
<path d="M2.04563 72.9547H-0.681641V70.2275H2.04563V72.9547Z" fill="#B4FFDB"/>
<path d="M2.04563 62.0456H-0.681641V59.3184H2.04563V62.0456Z" fill="#BD88FF"/>
<path d="M2.04563 64.7729H-0.681641V62.0456H2.04563V64.7729Z" fill="#BD88FF"/>
<path d="M70.2275 70.2275V72.9547H67.5002V70.2275H70.2275Z" fill="#7E18FF"/>
<path d="M72.9547 70.2275V72.9547H70.2275V70.2275H72.9547Z" fill="#A7DAC1"/>
<path d="M75.682 70.2275V72.9547H72.9547V70.2275H75.682Z" fill="#BD88FF"/>
<path d="M7.50018 70.2275V72.9547H4.7729V70.2275H7.50018Z" fill="#7E18FF"/>
<path d="M10.2275 70.2275V72.9547H7.50018V70.2275H10.2275Z" fill="#7E18FF"/>
<path d="M12.9547 70.2275V72.9547H10.2275V70.2275H12.9547Z" fill="#7E18FF"/>
<path d="M62.0456 70.2275V72.9547H59.3184V70.2275H62.0456Z" fill="#7E18FF"/>
<path d="M64.7729 70.2275V72.9547H62.0456V70.2275H64.7729Z" fill="#BD88FF"/>
<path d="M67.5002 70.2275V72.9547H64.7729V70.2275H67.5002Z" fill="#7E18FF"/>
<path d="M53.8638 70.2275V72.9547H51.1365V70.2275H53.8638Z" fill="#7E18FF"/>
<path d="M56.5911 70.2275V72.9547H53.8638V70.2275H56.5911Z" fill="#B4FFDB"/>
<path d="M59.3184 70.2275V72.9547H56.5911V70.2275H59.3184Z" fill="#B4FFDB"/>
<path d="M45.682 70.2275V72.9547H42.9547V70.2275H45.682Z" fill="#7E18FF"/>
<path d="M48.4093 70.2275V72.9547H45.682V70.2275H48.4093Z" fill="#B4FFDB"/>
<path d="M51.1365 70.2275V72.9547H48.4093V70.2275H51.1365Z" fill="#BD88FF"/>
<path d="M37.5002 70.2275V72.9547H34.7729V70.2275H37.5002Z" fill="#7E18FF"/>
<path d="M40.2275 70.2275V72.9547H37.5002V70.2275H40.2275Z" fill="#B4FFDB"/>
<path d="M42.9547 70.2275V72.9547H40.2275V70.2275H42.9547Z" fill="#7E18FF"/>
<path d="M29.3184 70.2275V72.9547H26.5911V70.2275H29.3184Z" fill="#7E18FF"/>
<path d="M32.0456 70.2275V72.9547H29.3184V70.2275H32.0456Z" fill="#BD88FF"/>
<path d="M34.7729 70.2275V72.9547H32.0456V70.2275H34.7729Z" fill="#BD88FF"/>
<path d="M21.1365 70.2275V72.9547H18.4093V70.2275H21.1365Z" fill="#B4FFDB"/>
<path d="M23.8638 70.2275V72.9547H21.1365V70.2275H23.8638Z" fill="#B4FFDB"/>
<path d="M26.5911 70.2275V72.9547H23.8638V70.2275H26.5911Z" fill="#B4FFDB"/>
<path d="M12.9547 70.2275V72.9547H10.2275V70.2275H12.9547Z" fill="#7E18FF"/>
<path d="M15.682 70.2275V72.9547H12.9547V70.2275H15.682Z" fill="#B4FFDB"/>
<path d="M18.4093 70.2275V72.9547H15.682V70.2275H18.4093Z" fill="#B4FFDB"/>
<path d="M7.50018 70.2275V72.9547H4.7729V70.2275H7.50018Z" fill="#BD88FF"/>
<path d="M10.2275 70.2275V72.9547H7.50018V70.2275H10.2275Z" fill="#BD88FF"/>
<path d="M56.5911 72.9547V75.682H53.8638V72.9547H56.5911Z" fill="#7E18FF"/>
<path d="M59.3184 72.9547V75.682H56.5911V72.9547H59.3184Z" fill="#B4FFDB"/>
<path d="M62.0456 72.9547V75.682H59.3184V72.9547H62.0456Z" fill="#BD88FF"/>
<path d="M48.4093 72.9547V75.682H45.682V72.9547H48.4093Z" fill="#B4FFDB"/>
<path d="M51.1365 72.9547V75.682H48.4093V72.9547H51.1365Z" fill="#BD88FF"/>
<path d="M53.8638 72.9547V75.682H51.1365V72.9547H53.8638Z" fill="#7E18FF"/>
<path d="M40.2275 72.9547V75.682H37.5002V72.9547H40.2275Z" fill="#7E18FF"/>
<path d="M42.9547 72.9547V75.682H40.2275V72.9547H42.9547Z" fill="#B4FFDB"/>
<path d="M45.682 72.9547V75.682H42.9547V72.9547H45.682Z" fill="#B4FFDB"/>
<path d="M32.0456 72.9547V75.682H29.3184V72.9547H32.0456Z" fill="#7E18FF"/>
<path d="M34.7729 72.9547V75.682H32.0456V72.9547H34.7729Z" fill="#BD88FF"/>
<path d="M37.5002 72.9547V75.682H34.7729V72.9547H37.5002Z" fill="#BD88FF"/>
<path d="M23.8638 72.9547V75.682H21.1365V72.9547H23.8638Z" fill="#7E18FF"/>
<path d="M26.5911 72.9547V75.682H23.8638V72.9547H26.5911Z" fill="#B4FFDB"/>
<path d="M29.3184 72.9547V75.682H26.5911V72.9547H29.3184Z" fill="#7E18FF"/>
<path d="M15.682 72.9547V75.682H12.9547V72.9547H15.682Z" fill="#7E18FF"/>
<path d="M18.4093 72.9547V75.682H15.682V72.9547H18.4093Z" fill="#BD88FF"/>
<path d="M21.1365 72.9547V75.682H18.4093V72.9547H21.1365Z" fill="#BD88FF"/>
<path d="M7.50018 72.9547V75.682H4.7729V72.9547H7.50018Z" fill="#7E18FF"/>
<path d="M4.7729 72.9547V75.682H2.04563V72.9547H4.7729Z" fill="#7E18FF"/>
<path d="M2.04563 72.9547V75.682H-0.681641V72.9547H2.04563Z" fill="#7E18FF"/>
<path d="M10.2275 72.9547V75.682H7.50018V72.9547H10.2275Z" fill="#BD88FF"/>
<path d="M12.9547 72.9547V75.682H10.2275V72.9547H12.9547Z" fill="#7E18FF"/>
<path d="M64.7729 72.9547V75.682H62.0456V72.9547H64.7729Z" fill="#7E18FF"/>
<path d="M67.5002 72.9547V75.682H64.7729V72.9547H67.5002Z" fill="#7E18FF"/>
<path d="M70.2275 72.9547V75.682H67.5002V72.9547H70.2275Z" fill="#7E18FF"/>
<path d="M70.2275 72.9547V75.682H67.5002V72.9547H70.2275Z" fill="#7E18FF"/>
<path d="M70.2275 72.9547V75.682H67.5002V72.9547H70.2275Z" fill="#7E18FF"/>
<path d="M72.9547 72.9547V75.682H70.2275V72.9547H72.9547Z" fill="#B4FFDB"/>
<path d="M75.682 72.9547V75.682H72.9547V72.9547H75.682Z" fill="#7E18FF"/>
<path d="M64.7729 72.9547V75.682H62.0456V72.9547H64.7729Z" fill="#BD88FF"/>
<path d="M67.5002 72.9547V75.682H64.7729V72.9547H67.5002Z" fill="#BD88FF"/>
<path d="M70.2275 7.50018H72.9547V10.2275H70.2275V7.50018Z" fill="#7E18FF"/>
<path d="M70.2275 4.7729H72.9547V7.50018H70.2275V4.7729Z" fill="#B4FFDB"/>
<path d="M70.2275 2.04563H72.9547V4.7729H70.2275V2.04563Z" fill="#B4FFDB"/>
<path d="M70.2275 70.2275H72.9547V72.9547H70.2275V70.2275Z" fill="#7E18FF"/>
<path d="M70.2275 67.5002H72.9547V70.2275H70.2275V67.5002Z" fill="#7E18FF"/>
<path d="M70.2275 64.7729H72.9547V67.5002H70.2275V64.7729Z" fill="#7E18FF"/>
<path d="M70.2275 15.682H72.9547V18.4093H70.2275V15.682Z" fill="#7E18FF"/>
<path d="M70.2275 12.9547H72.9547V15.682H70.2275V12.9547Z" fill="#7E18FF"/>
<path d="M70.2275 10.2275H72.9547V12.9547H70.2275V10.2275Z" fill="#7E18FF"/>
<path d="M70.2275 23.8638H72.9547V26.5911H70.2275V23.8638Z" fill="#7E18FF"/>
<path d="M70.2275 21.1365H72.9547V23.8638H70.2275V21.1365Z" fill="#B4FFDB"/>
<path d="M70.2275 18.4093H72.9547V21.1365H70.2275V18.4093Z" fill="#B4FFDB"/>
<path d="M70.2275 32.0456H72.9547V34.7729H70.2275V32.0456Z" fill="#BD88FF"/>
<path d="M70.2275 29.3184H72.9547V32.0456H70.2275V29.3184Z" fill="#BD88FF"/>
<path d="M70.2275 26.5911H72.9547V29.3184H70.2275V26.5911Z" fill="#BD88FF"/>
<path d="M70.2275 40.2275H72.9547V42.9547H70.2275V40.2275Z" fill="#B4FFDB"/>
<path d="M70.2275 37.5002H72.9547V40.2275H70.2275V37.5002Z" fill="#B4FFDB"/>
<path d="M70.2275 34.7729H72.9547V37.5002H70.2275V34.7729Z" fill="#BD88FF"/>
<path d="M70.2275 48.4093H72.9547V51.1365H70.2275V48.4093Z" fill="#BD88FF"/>
<path d="M70.2275 45.682H72.9547V48.4093H70.2275V45.682Z" fill="#BD88FF"/>
<path d="M70.2275 42.9547H72.9547V45.682H70.2275V42.9547Z" fill="#BD88FF"/>
<path d="M70.2275 56.5911H72.9547V59.3184H70.2275V56.5911Z" fill="#B4FFDB"/>
<path d="M70.2275 53.8638H72.9547V56.5911H70.2275V53.8638Z" fill="#B4FFDB"/>
<path d="M70.2275 51.1365H72.9547V53.8638H70.2275V51.1365Z" fill="#7E18FF"/>
<path d="M70.2275 64.7729H72.9547V67.5002H70.2275V64.7729Z" fill="#7E18FF"/>
<path d="M70.2275 62.0456H72.9547V64.7729H70.2275V62.0456Z" fill="#B4FFDB"/>
<path d="M70.2275 59.3184H72.9547V62.0456H70.2275V59.3184Z" fill="#B4FFDB"/>
<path d="M70.2275 70.2275H72.9547V72.9547H70.2275V70.2275Z" fill="#BD88FF"/>
<path d="M70.2275 67.5002H72.9547V70.2275H70.2275V67.5002Z" fill="#BD88FF"/>
<path d="M72.9547 21.1365H75.682V23.8638H72.9547V21.1365Z" fill="#7E18FF"/>
<path d="M72.9547 18.4093H75.682V21.1365H72.9547V18.4093Z" fill="#B4FFDB"/>
<path d="M72.9547 15.682H75.682V18.4093H72.9547V15.682Z" fill="#BD88FF"/>
<path d="M72.9547 29.3184H75.682V32.0456H72.9547V29.3184Z" fill="#7E18FF"/>
<path d="M72.9547 26.5911H75.682V29.3184H72.9547V26.5911Z" fill="#7E18FF"/>
<path d="M72.9547 23.8638H75.682V26.5911H72.9547V23.8638Z" fill="#7E18FF"/>
<path d="M72.9547 37.5002H75.682V40.2275H72.9547V37.5002Z" fill="#B4FFDB"/>
<path d="M72.9547 34.7729H75.682V37.5002H72.9547V34.7729Z" fill="#B4FFDB"/>
<path d="M72.9547 32.0456H75.682V34.7729H72.9547V32.0456Z" fill="#B4FFDB"/>
<path d="M72.9547 45.682H75.682V48.4093H72.9547V45.682Z" fill="#7E18FF"/>
<path d="M72.9547 42.9547H75.682V45.682H72.9547V42.9547Z" fill="#BD88FF"/>
<path d="M72.9547 40.2275H75.682V42.9547H72.9547V40.2275Z" fill="#BD88FF"/>
<path d="M72.9547 53.8638H75.682V56.5911H72.9547V53.8638Z" fill="#7E18FF"/>
<path d="M72.9547 51.1365H75.682V53.8638H72.9547V51.1365Z" fill="#7E18FF"/>
<path d="M72.9547 48.4093H75.682V51.1365H72.9547V48.4093Z" fill="#7E18FF"/>
<path d="M72.9547 62.0456H75.682V64.7729H72.9547V62.0456Z" fill="#7E18FF"/>
<path d="M72.9547 59.3184H75.682V62.0456H72.9547V59.3184Z" fill="#7E18FF"/>
<path d="M72.9547 56.5911H75.682V59.3184H72.9547V56.5911Z" fill="#B4FFDB"/>
<path d="M72.9547 70.2275H75.682V72.9547H72.9547V70.2275Z" fill="#7E18FF"/>
<path d="M72.9547 67.5002H75.682V70.2275H72.9547V67.5002Z" fill="#B4FFDB"/>
<path d="M72.9547 64.7729H75.682V67.5002H72.9547V64.7729Z" fill="#7E18FF"/>
<path d="M72.9547 12.9547H75.682V15.682H72.9547V12.9547Z" fill="#7E18FF"/>
<path d="M72.9547 10.2275H75.682V12.9547H72.9547V10.2275Z" fill="#7E18FF"/>
<path d="M72.9547 7.50018H75.682V10.2275H72.9547V7.50018Z" fill="#7E18FF"/>
<path d="M72.9547 7.50018H75.682V10.2275H72.9547V7.50018Z" fill="#7E18FF"/>
<path d="M72.9547 7.50018H75.682V10.2275H72.9547V7.50018Z" fill="#7E18FF"/>
<path d="M72.9547 4.7729H75.682V7.50018H72.9547V4.7729Z" fill="#B4FFDB"/>
<path d="M72.9547 2.04563H75.682V4.7729H72.9547V2.04563Z" fill="#B4FFDB"/>
<path d="M72.9547 12.9547H75.682V15.682H72.9547V12.9547Z" fill="#BD88FF"/>
<path d="M72.9547 10.2275H75.682V12.9547H72.9547V10.2275Z" fill="#BD88FF"/>
</g>
<defs>
<linearGradient id="paint0_linear_1322_9553" x1="38.1362" y1="2.54248" x2="38.1362" y2="72.4577" gradientUnits="userSpaceOnUse">
<stop offset="0.276042" stop-color="#D2C2FF"/>
<stop offset="1" stop-color="#C1F8FF"/>
</linearGradient>
</defs>
</svg>
