<?xml version="1.0" encoding="UTF-8" standalone="no"?>
<!-- Svg Vector Icons : http://www.onlinewebfonts.com/icon -->

<svg
   version="1.1"
   x="0px"
   y="0px"
   viewBox="0 0 1000 1000"
   enable-background="new 0 0 1000 1000"
   xml:space="preserve"
   id="svg8"
   sodipodi:docname="pending_white.svg"
   inkscape:version="1.1.2 (0a00cf5339, 2022-02-04)"
   xmlns:inkscape="http://www.inkscape.org/namespaces/inkscape"
   xmlns:sodipodi="http://sodipodi.sourceforge.net/DTD/sodipodi-0.dtd"
   xmlns="http://www.w3.org/2000/svg"
   xmlns:svg="http://www.w3.org/2000/svg"><defs
   id="defs12" /><sodipodi:namedview
   id="namedview10"
   pagecolor="#ffffff"
   bordercolor="#666666"
   borderopacity="1.0"
   inkscape:pageshadow="2"
   inkscape:pageopacity="0.0"
   inkscape:pagecheckerboard="0"
   showgrid="false"
   inkscape:zoom="0.422"
   inkscape:cx="1234.5972"
   inkscape:cy="863.74408"
   inkscape:window-width="1841"
   inkscape:window-height="1016"
   inkscape:window-x="1999"
   inkscape:window-y="27"
   inkscape:window-maximized="1"
   inkscape:current-layer="svg8" />
<metadata
   id="metadata2"> Svg Vector Icons : http://www.onlinewebfonts.com/icon </metadata>
<g
   id="g6"
   style="fill:#ff35ff;fill-opacity:1" />
<path
   style="fill:#ffffff;fill-opacity:1"
   d="m 470.1591,986.71464 c -12.3876,-0.5796 -38.5709,-3.4804 -53.5,-5.927 -87.2191,-14.294 -166.84665,-50.9058 -235.99997,-108.5099 -20.0604,-16.7101 -48.91134,-46.3068 -67.25331,-68.9917 -9.6134,-11.8897 -24.67954,-33.1632 -33.20217,-46.8819 -106.23262,-170.9999 -97.32947,-389.3454 22.46731,-551 C 131.77509,166.13086 171.68341,127.0083 211.93815,98.288334 348.0737,1.1617044 524.3484,-19.406486 681.0754,43.548174 c 17.6525,7.09073 47.9453,22.18013 65.0837,32.41946 57.9715,34.634916 108.7873,81.346906 148.5515,136.554706 115.8051,160.7814 121.8705,379.7351 15.1603,547.2702 -67.5245,106.0133 -172.925,182.311 -293.7118,212.613 -47.1758,11.8351 -96.1965,16.6395 -146,14.3091 z M 247.78965,557.99134 c 20.79684,-6.6471 38.05616,-24.9326 43.97273,-46.5872 2.77865,-10.1698 2.35704,-26.3075 -0.9536,-36.5 -6.56711,-20.2183 -21.61819,-36.018 -41.02024,-43.0606 -31.59012,-11.4666 -67.037,2.5911 -82.13613,32.574 -5.58864,11.0975 -6.93296,17.0455 -6.89033,30.4866 0.0326,10.2757 0.42173,13.1496 2.70807,20 3.5086,10.5127 7.35368,16.9994 14.78653,24.9451 10.04159,10.7345 20.51153,16.6906 35.40245,20.1394 9.04383,2.0946 24.08117,1.2146 34.13052,-1.9973 z m 260.67205,1.8226 c 3.9586,-0.8747 11.0056,-3.4088 15.66,-5.6315 6.9186,-3.3039 10.0233,-5.6135 17.0179,-12.6597 9.3563,-9.4253 13.4205,-16.0778 17.1786,-28.1186 3.0219,-9.6816 3.2414,-27.2098 0.4573,-36.5 -9.6373,-32.1581 -40.7158,-52.8678 -72.7542,-48.4811 -15.6097,2.1373 -27.8416,8.1471 -38.7747,19.051 -7.8909,7.8699 -13.2212,16.6056 -16.7371,27.4301 -3.3117,10.1958 -3.7331,26.3397 -0.9523,36.4829 9.5515,34.8394 44.1882,56.0973 78.9045,48.4269 z m 267.1687,0.079 c 36.5008,-7.7319 59.8492,-45.5458 50.5567,-81.8791 -5.86,-22.9127 -24.8707,-41.9816 -48.028,-48.1753 -8.6116,-2.3032 -24.3489,-2.332 -33,-0.06 -24.2746,6.3743 -44.3613,27.4157 -49.0384,51.3692 -1.7094,8.7545 -0.7546,26.0278 1.8937,34.257 5.8395,18.1458 20.9645,34.1456 39.1447,41.409 11.3251,4.5246 26.0753,5.7053 38.4713,3.0795 z"
   id="path1189" /></svg>
