<svg width="38" height="39" viewBox="0 0 38 39" fill="none" xmlns="http://www.w3.org/2000/svg">
  <path
    d="M0.123047 4.89844C0.123047 2.6893 1.91391 0.898438 4.12305 0.898438H33.9435C36.1526 0.898438 37.9435 2.6893 37.9435 4.89844V34.7189C37.9435 36.928 36.1526 38.7189 33.9435 38.7189H4.12305C1.91391 38.7189 0.123047 36.928 0.123047 34.7189V4.89844Z"
    fill="#13053D" />
  <path fill-rule="evenodd" clip-rule="evenodd"
    d="M8.00195 5.6253V33.9906C8.00195 35.2374 9.38121 35.9904 10.43 35.3162L32.4919 21.1335C33.4568 20.5132 33.4568 19.1027 32.4919 18.4824L10.43 4.29973C9.38121 3.62554 8.00195 4.37854 8.00195 5.6253ZM28.7256 19.808L11.1537 31.1042V8.51174L28.7256 19.808Z"
    fill="white" />
</svg>