<svg width="38" height="39" viewBox="0 0 38 39" fill="none" xmlns="http://www.w3.org/2000/svg">
  <path
    d="M0.134766 19.4141C0.134766 8.9703 8.60116 0.503906 19.045 0.503906V0.503906C29.4888 0.503906 37.9552 8.9703 37.9552 19.4141V19.4141C37.9552 29.8579 29.4888 38.3243 19.045 38.3243V38.3243C8.60116 38.3243 0.134766 29.8579 0.134766 19.4141V19.4141Z"
    fill="#13053D" />
  <path fill-rule="evenodd" clip-rule="evenodd"
    d="M19.0453 36.7468C9.4718 36.7468 1.71094 28.986 1.71094 19.4125C1.71094 9.83898 9.4718 2.07812 19.0453 2.07812C28.6188 2.07812 36.3797 9.83898 36.3797 19.4125C36.3797 28.986 28.6188 36.7468 19.0453 36.7468ZM30.7058 27.4882C32.296 25.1964 33.228 22.4133 33.228 19.4125C33.228 11.5796 26.8782 5.22983 19.0453 5.22983C11.2124 5.22983 4.86264 11.5796 4.86264 19.4125C4.86264 22.4133 5.79457 25.1964 7.3848 27.4882C9.15834 25.1455 13.3259 24.14 19.0453 24.14C24.7647 24.14 28.9323 25.1455 30.7058 27.4882ZM28.4448 30.0333C27.9835 28.3749 24.6701 27.2917 19.0453 27.2917C13.4205 27.2917 10.1071 28.3749 9.64585 30.0334C12.1483 32.2496 15.4397 33.5951 19.0453 33.5951C22.6509 33.5951 25.9423 32.2496 28.4448 30.0333ZM19.0453 9.95738C15.2303 9.95738 12.7419 12.7242 12.7419 16.2608C12.7419 21.6618 15.5168 24.14 19.0453 24.14C22.5407 24.14 25.3487 21.7441 25.3487 16.576C25.3487 12.9855 22.8497 9.95738 19.0453 9.95738ZM15.8936 16.2608C15.8936 19.8368 17.183 20.9883 19.0453 20.9883C20.9012 20.9883 22.197 19.8827 22.197 16.576C22.197 14.6068 20.961 13.1091 19.0453 13.1091C17.0499 13.1091 15.8936 14.3947 15.8936 16.2608Z"
    fill="white" />
</svg>