<?xml version="1.0" encoding="UTF-8" standalone="no"?>
<!-- Generator: Adobe Illustrator 19.0.0, SVG Export Plug-In . SVG Version: 6.00 Build 0)  -->

<svg
   version="1.1"
   id="Capa_1"
   x="0px"
   y="0px"
   viewBox="0 0 489.645 489.645"
   style="enable-background:new 0 0 489.645 489.645;"
   xml:space="preserve"
   sodipodi:docname="refresh-svgrepo-com.svg"
   inkscape:version="1.1.2 (0a00cf5339, 2022-02-04)"
   xmlns:inkscape="http://www.inkscape.org/namespaces/inkscape"
   xmlns:sodipodi="http://sodipodi.sourceforge.net/DTD/sodipodi-0.dtd"
   xmlns="http://www.w3.org/2000/svg"
   xmlns:svg="http://www.w3.org/2000/svg"><defs
   id="defs39" /><sodipodi:namedview
   id="namedview37"
   pagecolor="#ffffff"
   bordercolor="#666666"
   borderopacity="1.0"
   inkscape:pageshadow="2"
   inkscape:pageopacity="0.0"
   inkscape:pagecheckerboard="0"
   showgrid="false"
   inkscape:zoom="1.4684108"
   inkscape:cx="244.48199"
   inkscape:cy="299.30316"
   inkscape:window-width="1841"
   inkscape:window-height="1016"
   inkscape:window-x="1999"
   inkscape:window-y="27"
   inkscape:window-maximized="1"
   inkscape:current-layer="g4" />
<g
   id="g4">
	<path
   d="M460.656,132.911c-58.7-122.1-212.2-166.5-331.8-104.1c-9.4,5.2-13.5,16.6-8.3,27c5.2,9.4,16.6,13.5,27,8.3   c99.9-52,227.4-14.9,276.7,86.3c65.4,134.3-19,236.7-87.4,274.6c-93.1,51.7-211.2,17.4-267.6-70.7l69.3,14.5   c10.4,2.1,21.8-4.2,23.9-15.6c2.1-10.4-4.2-21.8-15.6-23.9l-122.8-25c-20.6-2-25,16.6-23.9,22.9l15.6,123.8   c1,10.4,9.4,17.7,19.8,17.7c12.8,0,20.8-12.5,19.8-23.9l-6-50.5c57.4,70.8,170.3,131.2,307.4,68.2   C414.856,432.511,548.256,314.811,460.656,132.911z"
   id="path2"
   style="fill:#000000;fill-opacity:1" />
</g>
<g
   id="g6">
</g>
<g
   id="g8">
</g>
<g
   id="g10">
</g>
<g
   id="g12">
</g>
<g
   id="g14">
</g>
<g
   id="g16">
</g>
<g
   id="g18">
</g>
<g
   id="g20">
</g>
<g
   id="g22">
</g>
<g
   id="g24">
</g>
<g
   id="g26">
</g>
<g
   id="g28">
</g>
<g
   id="g30">
</g>
<g
   id="g32">
</g>
<g
   id="g34">
</g>
</svg>
