<svg width="38" height="39" viewBox="0 0 38 39" fill="none" xmlns="http://www.w3.org/2000/svg">
  <path
    d="M0.0292969 4.46875C0.0292969 2.25961 1.82016 0.46875 4.0293 0.46875H33.8497C36.0589 0.46875 37.8497 2.25961 37.8497 4.46875V34.2892C37.8497 36.4983 36.0589 38.2892 33.8497 38.2892H4.0293C1.82016 38.2892 0.0292969 36.4983 0.0292969 34.2892V4.46875Z"
    fill="#13053D" />
  <path fill-rule="evenodd" clip-rule="evenodd"
    d="M31.8335 3.62109H6.04682C4.46443 3.62109 3.18164 5.03216 3.18164 6.7728V31.9864C3.18164 33.7271 4.46443 35.1381 6.04682 35.1381H7.90919V36.714H11.0609V35.1381H26.8194V36.714H29.9711V35.1381H31.8335C33.4159 35.1381 34.6987 33.7271 34.6987 31.9864V6.7728C34.6987 5.03216 33.4159 3.62109 31.8335 3.62109ZM6.33334 31.9864V6.7728H31.547V9.9245H29.9711V13.0762H31.547V25.683H29.9711V28.8347H31.547V31.9864H6.33334ZM27.9337 26.1446L25.7051 28.3732L22.1422 24.8103C21.2038 25.3648 20.1091 25.683 18.9402 25.683C17.7712 25.683 16.6765 25.3648 15.7381 24.8103L12.1752 28.3732L9.94661 26.1446L13.5095 22.5817C12.955 21.6433 12.6367 20.5486 12.6367 19.3796C12.6367 18.2106 12.955 17.116 13.5095 16.1775L9.94661 12.6147L12.1752 10.3861L15.7381 13.9489C16.6765 13.3944 17.7712 13.0762 18.9402 13.0762C20.1091 13.0762 21.2038 13.3944 22.1422 13.9489L25.7051 10.3861L27.9337 12.6147L24.3708 16.1775C24.9254 17.116 25.2436 18.2106 25.2436 19.3796C25.2436 20.5486 24.9254 21.6432 24.3708 22.5817L27.9337 26.1446ZM22.0919 19.3796C22.0919 21.1202 20.6808 22.5313 18.9402 22.5313C17.1995 22.5313 15.7885 21.1202 15.7885 19.3796C15.7885 17.639 17.1995 16.2279 18.9402 16.2279C20.6808 16.2279 22.0919 17.639 22.0919 19.3796Z"
    fill="white" />
</svg>