<svg width="1440" height="464" viewBox="0 0 1440 464" fill="none" xmlns="http://www.w3.org/2000/svg">
<g opacity="0.5">
<g opacity="0.2">
<rect x="-12.2705" y="15.729" width="440.407" height="432.542" rx="31.4576" fill="url(#paint0_linear_1152_9185)"/>
<path d="M55.7568 156.109H132.042V232.394H62.4416C58.7497 232.394 55.7568 229.401 55.7568 225.709V156.109Z" fill="#7E18FF" stroke="black" stroke-width="2.35932"/>
<rect x="132.041" y="232.394" width="76.2847" height="76.2847" fill="#7E18FF" stroke="black" stroke-width="2.35932"/>
<path d="M208.326 232.394H277.926C281.618 232.394 284.611 235.386 284.611 239.078V301.994C284.611 305.685 281.618 308.678 277.926 308.678H208.326V232.394Z" fill="#00FF84" stroke="black" stroke-width="2.35932"/>
<path d="M55.7568 86.5089C55.7568 82.8171 58.7497 79.8242 62.4416 79.8242H132.042V156.109H55.7568V86.5089Z" fill="#7E18FF" stroke="black" stroke-width="2.35932"/>
<rect x="132.041" y="79.8242" width="76.2847" height="76.2847" fill="#7E18FF" stroke="black" stroke-width="2.35932"/>
<rect x="208.326" y="79.8242" width="76.2847" height="76.2847" fill="#00FF84" stroke="black" stroke-width="2.35932"/>
<path d="M284.61 79.8242H354.21C357.902 79.8242 360.895 82.8171 360.895 86.5089V149.424C360.895 153.116 357.902 156.109 354.21 156.109H284.61V79.8242Z" fill="#00FF84" stroke="black" stroke-width="2.35932"/>
<path d="M132.041 308.678H208.326V378.278C208.326 381.97 205.333 384.962 201.641 384.962H132.041V308.678Z" fill="#7E18FF" stroke="black" stroke-width="2.35932"/>
<path d="M55.7568 315.362C55.7568 311.671 58.7497 308.678 62.4416 308.678H132.042V384.962H62.4416C58.7497 384.962 55.7568 381.97 55.7568 378.278V315.362Z" fill="#7E18FF" stroke="black" stroke-width="2.35932"/>
<mask id="mask0_1152_9185" style="mask-type:alpha" maskUnits="userSpaceOnUse" x="-28" y="0" width="464" height="464">
<rect x="-15.5714" y="12.4286" width="439.143" height="439.143" rx="28.066" stroke="black" stroke-width="24.8571"/>
</mask>
<g mask="url(#mask0_1152_9185)">
<path d="M18.4004 29.5272V12.6545H35.2731V29.5272H18.4004Z" fill="#7E18FF"/>
<path d="M1.52768 29.5272V12.6545H18.4004V29.5272H1.52768Z" fill="#B4FFDB"/>
<path d="M-15.345 29.5272V12.6545H1.52768V29.5272H-15.345Z" fill="#BD88FF"/>
<path d="M406.473 29.5272V12.6545H423.346V29.5272H406.473Z" fill="#7E18FF"/>
<path d="M389.6 29.5272V12.6545H406.473V29.5272H389.6Z" fill="#7E18FF"/>
<path d="M372.728 29.5272V12.6545H389.6V29.5272H372.728Z" fill="#7E18FF"/>
<path d="M69.0186 29.5272V12.6545H85.8913V29.5272H69.0186Z" fill="#7E18FF"/>
<path d="M52.1459 29.5272V12.6545H69.0186V29.5272H52.1459Z" fill="#BD88FF"/>
<path d="M35.2731 29.5272V12.6545H52.1459V29.5272H35.2731Z" fill="#7E18FF"/>
<path d="M119.637 29.5272V12.6545H136.51V29.5272H119.637Z" fill="#7E18FF"/>
<path d="M102.764 29.5272V12.6545H119.637V29.5272H102.764Z" fill="#B4FFDB"/>
<path d="M85.8913 29.5272V12.6545H102.764V29.5272H85.8913Z" fill="#B4FFDB"/>
<path d="M170.255 29.5272V12.6545H187.128V29.5272H170.255Z" fill="#7E18FF"/>
<path d="M153.382 29.5272V12.6545H170.255V29.5272H153.382Z" fill="#7E18FF"/>
<path d="M136.51 29.5272V12.6545H153.382V29.5272H136.51Z" fill="#BD88FF"/>
<path d="M220.873 29.5272V12.6545H237.746V29.5272H220.873Z" fill="#BD88FF"/>
<path d="M204 29.5272V12.6545H220.873V29.5272H204Z" fill="#B4FFDB"/>
<path d="M187.128 29.5272V12.6545H204V29.5272H187.128Z" fill="#7E18FF"/>
<path d="M271.491 29.5272V12.6545H288.364V29.5272H271.491Z" fill="#7E18FF"/>
<path d="M254.619 29.5272V12.6545H271.491V29.5272H254.619Z" fill="#BD88FF"/>
<path d="M237.746 29.5272V12.6545H254.619V29.5272H237.746Z" fill="#BD88FF"/>
<path d="M322.11 29.5272V12.6545H338.982V29.5272H322.11Z" fill="#B4FFDB"/>
<path d="M305.237 29.5272V12.6545H322.11V29.5272H305.237Z" fill="#B4FFDB"/>
<path d="M288.364 29.5272V12.6545H305.237V29.5272H288.364Z" fill="#7E18FF"/>
<path d="M372.728 29.5272V12.6545H389.6V29.5272H372.728Z" fill="#7E18FF"/>
<path d="M355.855 29.5272V12.6545H372.728V29.5272H355.855Z" fill="#B4FFDB"/>
<path d="M338.982 29.5272V12.6545H355.855V29.5272H338.982Z" fill="#B4FFDB"/>
<path d="M406.473 29.5272V12.6545H423.346V29.5272H406.473Z" fill="#BD88FF"/>
<path d="M389.6 29.5272V12.6545H406.473V29.5272H389.6Z" fill="#B4FFDB"/>
<path d="M102.764 12.6545V-4.21826H119.637V12.6545H102.764Z" fill="#7E18FF"/>
<path d="M85.8913 12.6545V-4.21826H102.764V12.6545H85.8913Z" fill="#B4FFDB"/>
<path d="M69.0186 12.6545V-4.21826H85.8913V12.6545H69.0186Z" fill="#BD88FF"/>
<path d="M153.382 12.6545V-4.21826H170.255V12.6545H153.382Z" fill="#7E18FF"/>
<path d="M136.51 12.6545V-4.21826H153.382V12.6545H136.51Z" fill="#BD88FF"/>
<path d="M119.637 12.6545V-4.21826H136.51V12.6545H119.637Z" fill="#7E18FF"/>
<path d="M204 12.6545V-4.21826H220.873V12.6545H204Z" fill="#B4FFDB"/>
<path d="M187.128 12.6545V-4.21826H204V12.6545H187.128Z" fill="#B4FFDB"/>
<path d="M170.255 12.6545V-4.21826H187.128V12.6545H170.255Z" fill="#B4FFDB"/>
<path d="M254.619 12.6545V-4.21826H271.491V12.6545H254.619Z" fill="#7E18FF"/>
<path d="M237.746 12.6545V-4.21826H254.619V12.6545H237.746Z" fill="#7E18FF"/>
<path d="M220.873 12.6545V-4.21826H237.746V12.6545H220.873Z" fill="#BD88FF"/>
<path d="M305.237 12.6545V-4.21826H322.11V12.6545H305.237Z" fill="#7E18FF"/>
<path d="M288.364 12.6545V-4.21826H305.237V12.6545H288.364Z" fill="#7E18FF"/>
<path d="M271.491 12.6545V-4.21826H288.364V12.6545H271.491Z" fill="#7E18FF"/>
<path d="M355.855 12.6545V-4.21826H372.728V12.6545H355.855Z" fill="#BD88FF"/>
<path d="M338.982 12.6545V-4.21826H355.855V12.6545H338.982Z" fill="#BD88FF"/>
<path d="M322.11 12.6545V-4.21826H338.982V12.6545H322.11Z" fill="#BD88FF"/>
<path d="M406.473 12.6545V-4.21826H423.346V12.6545H406.473Z" fill="#7E18FF"/>
<path d="M423.346 12.6545V-4.21826H440.219V12.6545H423.346Z" fill="#7E18FF"/>
<path d="M389.6 12.6545V-4.21826H406.473V12.6545H389.6Z" fill="#B4FFDB"/>
<path d="M372.728 12.6545V-4.21826H389.6V12.6545H372.728Z" fill="#7E18FF"/>
<path d="M52.1459 12.6545V-4.21826H69.0186V12.6545H52.1459Z" fill="#7E18FF"/>
<path d="M35.2731 12.6545V-4.21826H52.1459V12.6545H35.2731Z" fill="#7E18FF"/>
<path d="M18.4004 12.6545V-4.21826H35.2731V12.6545H18.4004Z" fill="#7E18FF"/>
<path d="M18.4004 12.6545V-4.21826H35.2731V12.6545H18.4004Z" fill="#7E18FF"/>
<path d="M18.4004 12.6545V-4.21826H35.2731V12.6545H18.4004Z" fill="#7E18FF"/>
<path d="M1.52768 12.6545V-4.21826H18.4004V12.6545H1.52768Z" fill="#B4FFDB"/>
<path d="M-15.345 12.6545V-4.21826H1.52768V12.6545H-15.345Z" fill="#B4FFDB"/>
<path d="M52.1459 12.6545V-4.21826H69.0186V12.6545H52.1459Z" fill="#BD88FF"/>
<path d="M35.2731 12.6545V-4.21826H52.1459V12.6545H35.2731Z" fill="#BD88FF"/>
<path d="M1.52768 417.6H-15.345V400.727H1.52768V417.6Z" fill="#7E18FF"/>
<path d="M1.52768 434.473H-15.345V417.6H1.52768V434.473Z" fill="#7E18FF"/>
<path d="M1.52768 451.345H-15.345V434.473H1.52768V451.345Z" fill="#BD88FF"/>
<path d="M1.52768 29.5272H-15.345V12.6545H1.52768V29.5272Z" fill="#7E18FF"/>
<path d="M1.52768 46.3999H-15.345V29.5272H1.52768V46.3999Z" fill="#7E18FF"/>
<path d="M1.52768 63.2727H-15.345V46.3999H1.52768V63.2727Z" fill="#7E18FF"/>
<path d="M1.52768 366.982H-15.345V350.109H1.52768V366.982Z" fill="#7E18FF"/>
<path d="M1.52768 383.854H-15.345V366.982H1.52768V383.854Z" fill="#BD88FF"/>
<path d="M1.52768 400.727H-15.345V383.854H1.52768V400.727Z" fill="#7E18FF"/>
<path d="M1.52768 316.364H-15.345V299.491H1.52768V316.364Z" fill="#7E18FF"/>
<path d="M1.52768 333.236H-15.345V316.364H1.52768V333.236Z" fill="#B4FFDB"/>
<path d="M1.52768 350.109H-15.345V333.236H1.52768V350.109Z" fill="#B4FFDB"/>
<path d="M1.52768 265.745H-15.345V248.873H1.52768V265.745Z" fill="#7E18FF"/>
<path d="M1.52768 282.618H-15.345V265.745H1.52768V282.618Z" fill="#B4FFDB"/>
<path d="M1.52768 299.491H-15.345V282.618H1.52768V299.491Z" fill="#BD88FF"/>
<path d="M1.52768 215.127H-15.345V198.254H1.52768V215.127Z" fill="#BD88FF"/>
<path d="M1.52768 232H-15.345V215.127H1.52768V232Z" fill="#7E18FF"/>
<path d="M1.52768 248.873H-15.345V232H1.52768V248.873Z" fill="#7E18FF"/>
<path d="M1.52768 164.509H-15.345V147.636H1.52768V164.509Z" fill="#7E18FF"/>
<path d="M1.52768 181.382H-15.345V164.509H1.52768V181.382Z" fill="#BD88FF"/>
<path d="M1.52768 198.254H-15.345V181.382H1.52768V198.254Z" fill="#BD88FF"/>
<path d="M1.52768 113.891H-15.345V97.0181H1.52768V113.891Z" fill="#7E18FF"/>
<path d="M1.52768 130.764H-15.345V113.891H1.52768V130.764Z" fill="#7E18FF"/>
<path d="M1.52768 147.636H-15.345V130.764H1.52768V147.636Z" fill="#7E18FF"/>
<path d="M1.52768 63.2727H-15.345V46.3999H1.52768V63.2727Z" fill="#7E18FF"/>
<path d="M1.52768 80.1454H-15.345V63.2727H1.52768V80.1454Z" fill="#B4FFDB"/>
<path d="M1.52768 97.0181H-15.345V80.1454H1.52768V97.0181Z" fill="#B4FFDB"/>
<path d="M1.52768 29.5272H-15.345V12.6545H1.52768V29.5272Z" fill="#BD88FF"/>
<path d="M1.52768 46.3999H-15.345V29.5272H1.52768V46.3999Z" fill="#BD88FF"/>
<path d="M-15.345 333.236H-32.2178V316.364H-15.345V333.236Z" fill="#7E18FF"/>
<path d="M-15.345 350.109H-32.2178V333.236H-15.345V350.109Z" fill="#B4FFDB"/>
<path d="M-15.345 366.982H-32.2178V350.109H-15.345V366.982Z" fill="#BD88FF"/>
<path d="M-15.345 282.618H-32.2178V265.745H-15.345V282.618Z" fill="#B4FFDB"/>
<path d="M-15.345 299.491H-32.2178V282.618H-15.345V299.491Z" fill="#BD88FF"/>
<path d="M-15.345 316.364H-32.2178V299.491H-15.345V316.364Z" fill="#7E18FF"/>
<path d="M-15.345 232H-32.2178V215.127H-15.345V232Z" fill="#7E18FF"/>
<path d="M-15.345 248.873H-32.2178V232H-15.345V248.873Z" fill="#B4FFDB"/>
<path d="M-15.345 265.745H-32.2178V248.873H-15.345V265.745Z" fill="#B4FFDB"/>
<path d="M-15.345 181.382H-32.2178V164.509H-15.345V181.382Z" fill="#B4FFDB"/>
<path d="M-15.345 198.254H-32.2178V181.382H-15.345V198.254Z" fill="#B4FFDB"/>
<path d="M-15.345 215.127H-32.2178V198.254H-15.345V215.127Z" fill="#BD88FF"/>
<path d="M-15.345 130.764H-32.2178V113.891H-15.345V130.764Z" fill="#7E18FF"/>
<path d="M-15.345 147.636H-32.2178V130.764H-15.345V147.636Z" fill="#B4FFDB"/>
<path d="M-15.345 164.509H-32.2178V147.636H-15.345V164.509Z" fill="#B4FFDB"/>
<path d="M-15.345 80.1454H-32.2178V63.2727H-15.345V80.1454Z" fill="#7E18FF"/>
<path d="M-15.345 97.0181H-32.2178V80.1454H-15.345V97.0181Z" fill="#BD88FF"/>
<path d="M-15.345 113.891H-32.2178V97.0181H-15.345V113.891Z" fill="#BD88FF"/>
<path d="M-15.345 29.5272H-32.2178V12.6545H-15.345V29.5272Z" fill="#7E18FF"/>
<path d="M-15.345 12.6545H-32.2178V-4.21826H-15.345V12.6545Z" fill="#7E18FF"/>
<path d="M-15.345 46.3999H-32.2178V29.5272H-15.345V46.3999Z" fill="#7E18FF"/>
<path d="M-15.345 63.2727H-32.2178V46.3999H-15.345V63.2727Z" fill="#7E18FF"/>
<path d="M-15.345 383.854H-32.2178V366.982H-15.345V383.854Z" fill="#7E18FF"/>
<path d="M-15.345 400.727H-32.2178V383.854H-15.345V400.727Z" fill="#7E18FF"/>
<path d="M-15.345 417.6H-32.2178V400.727H-15.345V417.6Z" fill="#7E18FF"/>
<path d="M-15.345 417.6H-32.2178V400.727H-15.345V417.6Z" fill="#7E18FF"/>
<path d="M-15.345 417.6H-32.2178V400.727H-15.345V417.6Z" fill="#7E18FF"/>
<path d="M-15.345 434.473H-32.2178V417.6H-15.345V434.473Z" fill="#B4FFDB"/>
<path d="M-15.345 451.345H-32.2178V434.473H-15.345V451.345Z" fill="#B4FFDB"/>
<path d="M-15.345 383.854H-32.2178V366.982H-15.345V383.854Z" fill="#BD88FF"/>
<path d="M-15.345 400.727H-32.2178V383.854H-15.345V400.727Z" fill="#BD88FF"/>
<path d="M406.473 434.473V451.345H389.6V434.473H406.473Z" fill="#7E18FF"/>
<path d="M423.346 434.473V451.345H406.473V434.473H423.346Z" fill="#A7DAC1"/>
<path d="M440.219 434.473V451.345H423.346V434.473H440.219Z" fill="#BD88FF"/>
<path d="M18.4004 434.473V451.345H1.52768V434.473H18.4004Z" fill="#7E18FF"/>
<path d="M35.2731 434.473V451.345H18.4004V434.473H35.2731Z" fill="#7E18FF"/>
<path d="M52.1459 434.473V451.345H35.2731V434.473H52.1459Z" fill="#7E18FF"/>
<path d="M355.855 434.473V451.345H338.982V434.473H355.855Z" fill="#7E18FF"/>
<path d="M372.728 434.473V451.345H355.855V434.473H372.728Z" fill="#BD88FF"/>
<path d="M389.6 434.473V451.345H372.728V434.473H389.6Z" fill="#7E18FF"/>
<path d="M305.237 434.473V451.345H288.364V434.473H305.237Z" fill="#7E18FF"/>
<path d="M322.11 434.473V451.345H305.237V434.473H322.11Z" fill="#B4FFDB"/>
<path d="M338.982 434.473V451.345H322.11V434.473H338.982Z" fill="#B4FFDB"/>
<path d="M254.619 434.473V451.345H237.746V434.473H254.619Z" fill="#7E18FF"/>
<path d="M271.491 434.473V451.345H254.619V434.473H271.491Z" fill="#B4FFDB"/>
<path d="M288.364 434.473V451.345H271.491V434.473H288.364Z" fill="#BD88FF"/>
<path d="M204 434.473V451.345H187.128V434.473H204Z" fill="#7E18FF"/>
<path d="M220.873 434.473V451.345H204V434.473H220.873Z" fill="#B4FFDB"/>
<path d="M237.746 434.473V451.345H220.873V434.473H237.746Z" fill="#7E18FF"/>
<path d="M153.382 434.473V451.345H136.51V434.473H153.382Z" fill="#7E18FF"/>
<path d="M170.255 434.473V451.345H153.382V434.473H170.255Z" fill="#BD88FF"/>
<path d="M187.128 434.473V451.345H170.255V434.473H187.128Z" fill="#BD88FF"/>
<path d="M102.764 434.473V451.345H85.8913V434.473H102.764Z" fill="#B4FFDB"/>
<path d="M119.637 434.473V451.345H102.764V434.473H119.637Z" fill="#B4FFDB"/>
<path d="M136.51 434.473V451.345H119.637V434.473H136.51Z" fill="#B4FFDB"/>
<path d="M52.1459 434.473V451.345H35.2731V434.473H52.1459Z" fill="#7E18FF"/>
<path d="M69.0186 434.473V451.345H52.1459V434.473H69.0186Z" fill="#B4FFDB"/>
<path d="M85.8913 434.473V451.345H69.0186V434.473H85.8913Z" fill="#B4FFDB"/>
<path d="M18.4004 434.473V451.345H1.52768V434.473H18.4004Z" fill="#BD88FF"/>
<path d="M35.2731 434.473V451.345H18.4004V434.473H35.2731Z" fill="#BD88FF"/>
<path d="M322.11 451.345V468.218H305.237V451.345H322.11Z" fill="#7E18FF"/>
<path d="M338.982 451.345V468.218H322.11V451.345H338.982Z" fill="#B4FFDB"/>
<path d="M355.855 451.345V468.218H338.982V451.345H355.855Z" fill="#BD88FF"/>
<path d="M271.491 451.345V468.218H254.619V451.345H271.491Z" fill="#B4FFDB"/>
<path d="M288.364 451.345V468.218H271.491V451.345H288.364Z" fill="#BD88FF"/>
<path d="M305.237 451.345V468.218H288.364V451.345H305.237Z" fill="#7E18FF"/>
<path d="M220.873 451.345V468.218H204V451.345H220.873Z" fill="#7E18FF"/>
<path d="M237.746 451.345V468.218H220.873V451.345H237.746Z" fill="#B4FFDB"/>
<path d="M254.619 451.345V468.218H237.746V451.345H254.619Z" fill="#B4FFDB"/>
<path d="M170.255 451.345V468.218H153.382V451.345H170.255Z" fill="#7E18FF"/>
<path d="M187.128 451.345V468.218H170.255V451.345H187.128Z" fill="#BD88FF"/>
<path d="M204 451.345V468.218H187.128V451.345H204Z" fill="#BD88FF"/>
<path d="M119.637 451.345V468.218H102.764V451.345H119.637Z" fill="#7E18FF"/>
<path d="M136.51 451.345V468.218H119.637V451.345H136.51Z" fill="#B4FFDB"/>
<path d="M153.382 451.345V468.218H136.51V451.345H153.382Z" fill="#7E18FF"/>
<path d="M69.0186 451.345V468.218H52.1459V451.345H69.0186Z" fill="#7E18FF"/>
<path d="M85.8913 451.345V468.218H69.0186V451.345H85.8913Z" fill="#BD88FF"/>
<path d="M102.764 451.345V468.218H85.8913V451.345H102.764Z" fill="#BD88FF"/>
<path d="M18.4004 451.345V468.218H1.52768V451.345H18.4004Z" fill="#7E18FF"/>
<path d="M1.52768 451.345V468.218H-15.345V451.345H1.52768Z" fill="#7E18FF"/>
<path d="M-15.345 451.345V468.218H-32.2178V451.345H-15.345Z" fill="#7E18FF"/>
<path d="M35.2731 451.345V468.218H18.4004V451.345H35.2731Z" fill="#BD88FF"/>
<path d="M52.1459 451.345V468.218H35.2731V451.345H52.1459Z" fill="#7E18FF"/>
<path d="M372.728 451.345V468.218H355.855V451.345H372.728Z" fill="#7E18FF"/>
<path d="M389.6 451.345V468.218H372.728V451.345H389.6Z" fill="#7E18FF"/>
<path d="M406.473 451.345V468.218H389.6V451.345H406.473Z" fill="#7E18FF"/>
<path d="M406.473 451.345V468.218H389.6V451.345H406.473Z" fill="#7E18FF"/>
<path d="M406.473 451.345V468.218H389.6V451.345H406.473Z" fill="#7E18FF"/>
<path d="M423.346 451.345V468.218H406.473V451.345H423.346Z" fill="#B4FFDB"/>
<path d="M440.219 451.345V468.218H423.346V451.345H440.219Z" fill="#7E18FF"/>
<path d="M372.728 451.345V468.218H355.855V451.345H372.728Z" fill="#BD88FF"/>
<path d="M389.6 451.345V468.218H372.728V451.345H389.6Z" fill="#BD88FF"/>
<path d="M406.473 46.3999H423.346V63.2727H406.473V46.3999Z" fill="#7E18FF"/>
<path d="M406.473 29.5272H423.346V46.3999H406.473V29.5272Z" fill="#B4FFDB"/>
<path d="M406.473 12.6545H423.346V29.5272H406.473V12.6545Z" fill="#B4FFDB"/>
<path d="M406.473 434.473H423.346V451.345H406.473V434.473Z" fill="#7E18FF"/>
<path d="M406.473 417.6H423.346V434.473H406.473V417.6Z" fill="#7E18FF"/>
<path d="M406.473 400.727H423.346V417.6H406.473V400.727Z" fill="#7E18FF"/>
<path d="M406.473 97.0181H423.346V113.891H406.473V97.0181Z" fill="#7E18FF"/>
<path d="M406.473 80.1454H423.346V97.0181H406.473V80.1454Z" fill="#7E18FF"/>
<path d="M406.473 63.2727H423.346V80.1454H406.473V63.2727Z" fill="#7E18FF"/>
<path d="M406.473 147.636H423.346V164.509H406.473V147.636Z" fill="#7E18FF"/>
<path d="M406.473 130.764H423.346V147.636H406.473V130.764Z" fill="#B4FFDB"/>
<path d="M406.473 113.891H423.346V130.764H406.473V113.891Z" fill="#B4FFDB"/>
<path d="M406.473 198.254H423.346V215.127H406.473V198.254Z" fill="#BD88FF"/>
<path d="M406.473 181.382H423.346V198.254H406.473V181.382Z" fill="#BD88FF"/>
<path d="M406.473 164.509H423.346V181.382H406.473V164.509Z" fill="#BD88FF"/>
<path d="M406.473 248.873H423.346V265.745H406.473V248.873Z" fill="#B4FFDB"/>
<path d="M406.473 232H423.346V248.873H406.473V232Z" fill="#B4FFDB"/>
<path d="M406.473 215.127H423.346V232H406.473V215.127Z" fill="#BD88FF"/>
<path d="M406.473 299.491H423.346V316.364H406.473V299.491Z" fill="#BD88FF"/>
<path d="M406.473 282.618H423.346V299.491H406.473V282.618Z" fill="#BD88FF"/>
<path d="M406.473 265.745H423.346V282.618H406.473V265.745Z" fill="#BD88FF"/>
<path d="M406.473 350.109H423.346V366.982H406.473V350.109Z" fill="#B4FFDB"/>
<path d="M406.473 333.236H423.346V350.109H406.473V333.236Z" fill="#B4FFDB"/>
<path d="M406.473 316.364H423.346V333.236H406.473V316.364Z" fill="#7E18FF"/>
<path d="M406.473 400.727H423.346V417.6H406.473V400.727Z" fill="#7E18FF"/>
<path d="M406.473 383.854H423.346V400.727H406.473V383.854Z" fill="#B4FFDB"/>
<path d="M406.473 366.982H423.346V383.854H406.473V366.982Z" fill="#B4FFDB"/>
<path d="M406.473 434.473H423.346V451.345H406.473V434.473Z" fill="#BD88FF"/>
<path d="M406.473 417.6H423.346V434.473H406.473V417.6Z" fill="#BD88FF"/>
<path d="M423.346 130.764H440.219V147.636H423.346V130.764Z" fill="#7E18FF"/>
<path d="M423.346 113.891H440.219V130.764H423.346V113.891Z" fill="#B4FFDB"/>
<path d="M423.346 97.0181H440.219V113.891H423.346V97.0181Z" fill="#BD88FF"/>
<path d="M423.346 181.382H440.219V198.254H423.346V181.382Z" fill="#7E18FF"/>
<path d="M423.346 164.509H440.219V181.382H423.346V164.509Z" fill="#7E18FF"/>
<path d="M423.346 147.636H440.219V164.509H423.346V147.636Z" fill="#7E18FF"/>
<path d="M423.346 232H440.219V248.873H423.346V232Z" fill="#B4FFDB"/>
<path d="M423.346 215.127H440.219V232H423.346V215.127Z" fill="#B4FFDB"/>
<path d="M423.346 198.254H440.219V215.127H423.346V198.254Z" fill="#B4FFDB"/>
<path d="M423.346 282.618H440.219V299.491H423.346V282.618Z" fill="#7E18FF"/>
<path d="M423.346 265.745H440.219V282.618H423.346V265.745Z" fill="#BD88FF"/>
<path d="M423.346 248.873H440.219V265.745H423.346V248.873Z" fill="#BD88FF"/>
<path d="M423.346 333.236H440.219V350.109H423.346V333.236Z" fill="#7E18FF"/>
<path d="M423.346 316.364H440.219V333.236H423.346V316.364Z" fill="#7E18FF"/>
<path d="M423.346 299.491H440.219V316.364H423.346V299.491Z" fill="#7E18FF"/>
<path d="M423.346 383.854H440.219V400.727H423.346V383.854Z" fill="#7E18FF"/>
<path d="M423.346 366.982H440.219V383.854H423.346V366.982Z" fill="#7E18FF"/>
<path d="M423.346 350.109H440.219V366.982H423.346V350.109Z" fill="#B4FFDB"/>
<path d="M423.346 434.473H440.219V451.345H423.346V434.473Z" fill="#7E18FF"/>
<path d="M423.346 417.6H440.219V434.473H423.346V417.6Z" fill="#B4FFDB"/>
<path d="M423.346 400.727H440.219V417.6H423.346V400.727Z" fill="#7E18FF"/>
<path d="M423.346 80.1454H440.219V97.0181H423.346V80.1454Z" fill="#7E18FF"/>
<path d="M423.346 63.2727H440.219V80.1454H423.346V63.2727Z" fill="#7E18FF"/>
<path d="M423.346 46.3999H440.219V63.2727H423.346V46.3999Z" fill="#7E18FF"/>
<path d="M423.346 46.3999H440.219V63.2727H423.346V46.3999Z" fill="#7E18FF"/>
<path d="M423.346 46.3999H440.219V63.2727H423.346V46.3999Z" fill="#7E18FF"/>
<path d="M423.346 29.5272H440.219V46.3999H423.346V29.5272Z" fill="#B4FFDB"/>
<path d="M423.346 12.6545H440.219V29.5272H423.346V12.6545Z" fill="#B4FFDB"/>
<path d="M423.346 80.1454H440.219V97.0181H423.346V80.1454Z" fill="#BD88FF"/>
<path d="M423.346 63.2727H440.219V80.1454H423.346V63.2727Z" fill="#BD88FF"/>
</g>
</g>
<g opacity="0.2">
<rect x="542.729" y="15.729" width="440.407" height="432.542" rx="31.4576" fill="url(#paint1_linear_1152_9185)"/>
<path d="M610.757 156.109H687.042V232.394H617.442C613.75 232.394 610.757 229.401 610.757 225.709V156.109Z" fill="#7E18FF" stroke="black" stroke-width="2.35932"/>
<rect x="687.041" y="232.394" width="76.2847" height="76.2847" fill="#7E18FF" stroke="black" stroke-width="2.35932"/>
<path d="M763.326 232.394H832.926C836.618 232.394 839.611 235.386 839.611 239.078V301.994C839.611 305.685 836.618 308.678 832.926 308.678H763.326V232.394Z" fill="#00FF84" stroke="black" stroke-width="2.35932"/>
<path d="M610.757 86.5089C610.757 82.8171 613.75 79.8242 617.442 79.8242H687.042V156.109H610.757V86.5089Z" fill="#7E18FF" stroke="black" stroke-width="2.35932"/>
<rect x="687.041" y="79.8242" width="76.2847" height="76.2847" fill="#7E18FF" stroke="black" stroke-width="2.35932"/>
<rect x="763.326" y="79.8242" width="76.2847" height="76.2847" fill="#00FF84" stroke="black" stroke-width="2.35932"/>
<path d="M839.61 79.8242H909.21C912.902 79.8242 915.895 82.8171 915.895 86.5089V149.424C915.895 153.116 912.902 156.109 909.21 156.109H839.61V79.8242Z" fill="#00FF84" stroke="black" stroke-width="2.35932"/>
<path d="M687.041 308.678H763.326V378.278C763.326 381.97 760.333 384.962 756.641 384.962H687.041V308.678Z" fill="#7E18FF" stroke="black" stroke-width="2.35932"/>
<path d="M610.757 315.362C610.757 311.671 613.75 308.678 617.442 308.678H687.042V384.962H617.442C613.75 384.962 610.757 381.97 610.757 378.278V315.362Z" fill="#7E18FF" stroke="black" stroke-width="2.35932"/>
<mask id="mask1_1152_9185" style="mask-type:alpha" maskUnits="userSpaceOnUse" x="527" y="0" width="464" height="464">
<rect x="539.429" y="12.4286" width="439.143" height="439.143" rx="28.066" stroke="black" stroke-width="24.8571"/>
</mask>
<g mask="url(#mask1_1152_9185)">
<path d="M573.4 29.5272V12.6545H590.273V29.5272H573.4Z" fill="#7E18FF"/>
<path d="M556.528 29.5272V12.6545H573.4V29.5272H556.528Z" fill="#B4FFDB"/>
<path d="M539.655 29.5272V12.6545H556.528V29.5272H539.655Z" fill="#BD88FF"/>
<path d="M961.473 29.5272V12.6545H978.346V29.5272H961.473Z" fill="#7E18FF"/>
<path d="M944.6 29.5272V12.6545H961.473V29.5272H944.6Z" fill="#7E18FF"/>
<path d="M927.728 29.5272V12.6545H944.6V29.5272H927.728Z" fill="#7E18FF"/>
<path d="M624.019 29.5272V12.6545H640.891V29.5272H624.019Z" fill="#7E18FF"/>
<path d="M607.146 29.5272V12.6545H624.019V29.5272H607.146Z" fill="#BD88FF"/>
<path d="M590.273 29.5272V12.6545H607.146V29.5272H590.273Z" fill="#7E18FF"/>
<path d="M674.637 29.5272V12.6545H691.51V29.5272H674.637Z" fill="#7E18FF"/>
<path d="M657.764 29.5272V12.6545H674.637V29.5272H657.764Z" fill="#B4FFDB"/>
<path d="M640.891 29.5272V12.6545H657.764V29.5272H640.891Z" fill="#B4FFDB"/>
<path d="M725.255 29.5272V12.6545H742.128V29.5272H725.255Z" fill="#7E18FF"/>
<path d="M708.382 29.5272V12.6545H725.255V29.5272H708.382Z" fill="#7E18FF"/>
<path d="M691.51 29.5272V12.6545H708.382V29.5272H691.51Z" fill="#BD88FF"/>
<path d="M775.873 29.5272V12.6545H792.746V29.5272H775.873Z" fill="#BD88FF"/>
<path d="M759 29.5272V12.6545H775.873V29.5272H759Z" fill="#B4FFDB"/>
<path d="M742.128 29.5272V12.6545H759V29.5272H742.128Z" fill="#7E18FF"/>
<path d="M826.491 29.5272V12.6545H843.364V29.5272H826.491Z" fill="#7E18FF"/>
<path d="M809.619 29.5272V12.6545H826.491V29.5272H809.619Z" fill="#BD88FF"/>
<path d="M792.746 29.5272V12.6545H809.619V29.5272H792.746Z" fill="#BD88FF"/>
<path d="M877.11 29.5272V12.6545H893.982V29.5272H877.11Z" fill="#B4FFDB"/>
<path d="M860.237 29.5272V12.6545H877.11V29.5272H860.237Z" fill="#B4FFDB"/>
<path d="M843.364 29.5272V12.6545H860.237V29.5272H843.364Z" fill="#7E18FF"/>
<path d="M927.728 29.5272V12.6545H944.6V29.5272H927.728Z" fill="#7E18FF"/>
<path d="M910.855 29.5272V12.6545H927.728V29.5272H910.855Z" fill="#B4FFDB"/>
<path d="M893.982 29.5272V12.6545H910.855V29.5272H893.982Z" fill="#B4FFDB"/>
<path d="M961.473 29.5272V12.6545H978.346V29.5272H961.473Z" fill="#BD88FF"/>
<path d="M944.6 29.5272V12.6545H961.473V29.5272H944.6Z" fill="#B4FFDB"/>
<path d="M657.764 12.6545V-4.21826H674.637V12.6545H657.764Z" fill="#7E18FF"/>
<path d="M640.891 12.6545V-4.21826H657.764V12.6545H640.891Z" fill="#B4FFDB"/>
<path d="M624.019 12.6545V-4.21826H640.891V12.6545H624.019Z" fill="#BD88FF"/>
<path d="M708.382 12.6545V-4.21826H725.255V12.6545H708.382Z" fill="#7E18FF"/>
<path d="M691.51 12.6545V-4.21826H708.382V12.6545H691.51Z" fill="#BD88FF"/>
<path d="M674.637 12.6545V-4.21826H691.51V12.6545H674.637Z" fill="#7E18FF"/>
<path d="M759 12.6545V-4.21826H775.873V12.6545H759Z" fill="#B4FFDB"/>
<path d="M742.128 12.6545V-4.21826H759V12.6545H742.128Z" fill="#B4FFDB"/>
<path d="M725.255 12.6545V-4.21826H742.128V12.6545H725.255Z" fill="#B4FFDB"/>
<path d="M809.619 12.6545V-4.21826H826.491V12.6545H809.619Z" fill="#7E18FF"/>
<path d="M792.746 12.6545V-4.21826H809.619V12.6545H792.746Z" fill="#7E18FF"/>
<path d="M775.873 12.6545V-4.21826H792.746V12.6545H775.873Z" fill="#BD88FF"/>
<path d="M860.237 12.6545V-4.21826H877.11V12.6545H860.237Z" fill="#7E18FF"/>
<path d="M843.364 12.6545V-4.21826H860.237V12.6545H843.364Z" fill="#7E18FF"/>
<path d="M826.491 12.6545V-4.21826H843.364V12.6545H826.491Z" fill="#7E18FF"/>
<path d="M910.855 12.6545V-4.21826H927.728V12.6545H910.855Z" fill="#BD88FF"/>
<path d="M893.982 12.6545V-4.21826H910.855V12.6545H893.982Z" fill="#BD88FF"/>
<path d="M877.11 12.6545V-4.21826H893.982V12.6545H877.11Z" fill="#BD88FF"/>
<path d="M961.473 12.6545V-4.21826H978.346V12.6545H961.473Z" fill="#7E18FF"/>
<path d="M978.346 12.6545V-4.21826H995.219V12.6545H978.346Z" fill="#7E18FF"/>
<path d="M944.6 12.6545V-4.21826H961.473V12.6545H944.6Z" fill="#B4FFDB"/>
<path d="M927.728 12.6545V-4.21826H944.6V12.6545H927.728Z" fill="#7E18FF"/>
<path d="M607.146 12.6545V-4.21826H624.019V12.6545H607.146Z" fill="#7E18FF"/>
<path d="M590.273 12.6545V-4.21826H607.146V12.6545H590.273Z" fill="#7E18FF"/>
<path d="M573.4 12.6545V-4.21826H590.273V12.6545H573.4Z" fill="#7E18FF"/>
<path d="M573.4 12.6545V-4.21826H590.273V12.6545H573.4Z" fill="#7E18FF"/>
<path d="M573.4 12.6545V-4.21826H590.273V12.6545H573.4Z" fill="#7E18FF"/>
<path d="M556.528 12.6545V-4.21826H573.4V12.6545H556.528Z" fill="#B4FFDB"/>
<path d="M539.655 12.6545V-4.21826H556.528V12.6545H539.655Z" fill="#B4FFDB"/>
<path d="M607.146 12.6545V-4.21826H624.019V12.6545H607.146Z" fill="#BD88FF"/>
<path d="M590.273 12.6545V-4.21826H607.146V12.6545H590.273Z" fill="#BD88FF"/>
<path d="M556.528 417.6H539.655V400.727H556.528V417.6Z" fill="#7E18FF"/>
<path d="M556.528 434.473H539.655V417.6H556.528V434.473Z" fill="#7E18FF"/>
<path d="M556.528 451.345H539.655V434.473H556.528V451.345Z" fill="#BD88FF"/>
<path d="M556.528 29.5272H539.655V12.6545H556.528V29.5272Z" fill="#7E18FF"/>
<path d="M556.528 46.3999H539.655V29.5272H556.528V46.3999Z" fill="#7E18FF"/>
<path d="M556.528 63.2727H539.655V46.3999H556.528V63.2727Z" fill="#7E18FF"/>
<path d="M556.528 366.982H539.655V350.109H556.528V366.982Z" fill="#7E18FF"/>
<path d="M556.528 383.854H539.655V366.982H556.528V383.854Z" fill="#BD88FF"/>
<path d="M556.528 400.727H539.655V383.854H556.528V400.727Z" fill="#7E18FF"/>
<path d="M556.528 316.364H539.655V299.491H556.528V316.364Z" fill="#7E18FF"/>
<path d="M556.528 333.236H539.655V316.364H556.528V333.236Z" fill="#B4FFDB"/>
<path d="M556.528 350.109H539.655V333.236H556.528V350.109Z" fill="#B4FFDB"/>
<path d="M556.528 265.745H539.655V248.873H556.528V265.745Z" fill="#7E18FF"/>
<path d="M556.528 282.618H539.655V265.745H556.528V282.618Z" fill="#B4FFDB"/>
<path d="M556.528 299.491H539.655V282.618H556.528V299.491Z" fill="#BD88FF"/>
<path d="M556.528 215.127H539.655V198.254H556.528V215.127Z" fill="#BD88FF"/>
<path d="M556.528 232H539.655V215.127H556.528V232Z" fill="#7E18FF"/>
<path d="M556.528 248.873H539.655V232H556.528V248.873Z" fill="#7E18FF"/>
<path d="M556.528 164.509H539.655V147.636H556.528V164.509Z" fill="#7E18FF"/>
<path d="M556.528 181.382H539.655V164.509H556.528V181.382Z" fill="#BD88FF"/>
<path d="M556.528 198.254H539.655V181.382H556.528V198.254Z" fill="#BD88FF"/>
<path d="M556.528 113.891H539.655V97.0181H556.528V113.891Z" fill="#7E18FF"/>
<path d="M556.528 130.764H539.655V113.891H556.528V130.764Z" fill="#7E18FF"/>
<path d="M556.528 147.636H539.655V130.764H556.528V147.636Z" fill="#7E18FF"/>
<path d="M556.528 63.2727H539.655V46.3999H556.528V63.2727Z" fill="#7E18FF"/>
<path d="M556.528 80.1454H539.655V63.2727H556.528V80.1454Z" fill="#B4FFDB"/>
<path d="M556.528 97.0181H539.655V80.1454H556.528V97.0181Z" fill="#B4FFDB"/>
<path d="M556.528 29.5272H539.655V12.6545H556.528V29.5272Z" fill="#BD88FF"/>
<path d="M556.528 46.3999H539.655V29.5272H556.528V46.3999Z" fill="#BD88FF"/>
<path d="M539.655 333.236H522.782V316.364H539.655V333.236Z" fill="#7E18FF"/>
<path d="M539.655 350.109H522.782V333.236H539.655V350.109Z" fill="#B4FFDB"/>
<path d="M539.655 366.982H522.782V350.109H539.655V366.982Z" fill="#BD88FF"/>
<path d="M539.655 282.618H522.782V265.745H539.655V282.618Z" fill="#B4FFDB"/>
<path d="M539.655 299.491H522.782V282.618H539.655V299.491Z" fill="#BD88FF"/>
<path d="M539.655 316.364H522.782V299.491H539.655V316.364Z" fill="#7E18FF"/>
<path d="M539.655 232H522.782V215.127H539.655V232Z" fill="#7E18FF"/>
<path d="M539.655 248.873H522.782V232H539.655V248.873Z" fill="#B4FFDB"/>
<path d="M539.655 265.745H522.782V248.873H539.655V265.745Z" fill="#B4FFDB"/>
<path d="M539.655 181.382H522.782V164.509H539.655V181.382Z" fill="#B4FFDB"/>
<path d="M539.655 198.254H522.782V181.382H539.655V198.254Z" fill="#B4FFDB"/>
<path d="M539.655 215.127H522.782V198.254H539.655V215.127Z" fill="#BD88FF"/>
<path d="M539.655 130.764H522.782V113.891H539.655V130.764Z" fill="#7E18FF"/>
<path d="M539.655 147.636H522.782V130.764H539.655V147.636Z" fill="#B4FFDB"/>
<path d="M539.655 164.509H522.782V147.636H539.655V164.509Z" fill="#B4FFDB"/>
<path d="M539.655 80.1454H522.782V63.2727H539.655V80.1454Z" fill="#7E18FF"/>
<path d="M539.655 97.0181H522.782V80.1454H539.655V97.0181Z" fill="#BD88FF"/>
<path d="M539.655 113.891H522.782V97.0181H539.655V113.891Z" fill="#BD88FF"/>
<path d="M539.655 29.5272H522.782V12.6545H539.655V29.5272Z" fill="#7E18FF"/>
<path d="M539.655 12.6545H522.782V-4.21826H539.655V12.6545Z" fill="#7E18FF"/>
<path d="M539.655 46.3999H522.782V29.5272H539.655V46.3999Z" fill="#7E18FF"/>
<path d="M539.655 63.2727H522.782V46.3999H539.655V63.2727Z" fill="#7E18FF"/>
<path d="M539.655 383.854H522.782V366.982H539.655V383.854Z" fill="#7E18FF"/>
<path d="M539.655 400.727H522.782V383.854H539.655V400.727Z" fill="#7E18FF"/>
<path d="M539.655 417.6H522.782V400.727H539.655V417.6Z" fill="#7E18FF"/>
<path d="M539.655 417.6H522.782V400.727H539.655V417.6Z" fill="#7E18FF"/>
<path d="M539.655 417.6H522.782V400.727H539.655V417.6Z" fill="#7E18FF"/>
<path d="M539.655 434.473H522.782V417.6H539.655V434.473Z" fill="#B4FFDB"/>
<path d="M539.655 451.345H522.782V434.473H539.655V451.345Z" fill="#B4FFDB"/>
<path d="M539.655 383.854H522.782V366.982H539.655V383.854Z" fill="#BD88FF"/>
<path d="M539.655 400.727H522.782V383.854H539.655V400.727Z" fill="#BD88FF"/>
<path d="M961.473 434.473V451.345H944.6V434.473H961.473Z" fill="#7E18FF"/>
<path d="M978.346 434.473V451.345H961.473V434.473H978.346Z" fill="#A7DAC1"/>
<path d="M995.219 434.473V451.345H978.346V434.473H995.219Z" fill="#BD88FF"/>
<path d="M573.4 434.473V451.345H556.528V434.473H573.4Z" fill="#7E18FF"/>
<path d="M590.273 434.473V451.345H573.4V434.473H590.273Z" fill="#7E18FF"/>
<path d="M607.146 434.473V451.345H590.273V434.473H607.146Z" fill="#7E18FF"/>
<path d="M910.855 434.473V451.345H893.982V434.473H910.855Z" fill="#7E18FF"/>
<path d="M927.728 434.473V451.345H910.855V434.473H927.728Z" fill="#BD88FF"/>
<path d="M944.6 434.473V451.345H927.728V434.473H944.6Z" fill="#7E18FF"/>
<path d="M860.237 434.473V451.345H843.364V434.473H860.237Z" fill="#7E18FF"/>
<path d="M877.11 434.473V451.345H860.237V434.473H877.11Z" fill="#B4FFDB"/>
<path d="M893.982 434.473V451.345H877.11V434.473H893.982Z" fill="#B4FFDB"/>
<path d="M809.619 434.473V451.345H792.746V434.473H809.619Z" fill="#7E18FF"/>
<path d="M826.491 434.473V451.345H809.619V434.473H826.491Z" fill="#B4FFDB"/>
<path d="M843.364 434.473V451.345H826.491V434.473H843.364Z" fill="#BD88FF"/>
<path d="M759 434.473V451.345H742.128V434.473H759Z" fill="#7E18FF"/>
<path d="M775.873 434.473V451.345H759V434.473H775.873Z" fill="#B4FFDB"/>
<path d="M792.746 434.473V451.345H775.873V434.473H792.746Z" fill="#7E18FF"/>
<path d="M708.382 434.473V451.345H691.51V434.473H708.382Z" fill="#7E18FF"/>
<path d="M725.255 434.473V451.345H708.382V434.473H725.255Z" fill="#BD88FF"/>
<path d="M742.128 434.473V451.345H725.255V434.473H742.128Z" fill="#BD88FF"/>
<path d="M657.764 434.473V451.345H640.891V434.473H657.764Z" fill="#B4FFDB"/>
<path d="M674.637 434.473V451.345H657.764V434.473H674.637Z" fill="#B4FFDB"/>
<path d="M691.51 434.473V451.345H674.637V434.473H691.51Z" fill="#B4FFDB"/>
<path d="M607.146 434.473V451.345H590.273V434.473H607.146Z" fill="#7E18FF"/>
<path d="M624.019 434.473V451.345H607.146V434.473H624.019Z" fill="#B4FFDB"/>
<path d="M640.891 434.473V451.345H624.019V434.473H640.891Z" fill="#B4FFDB"/>
<path d="M573.4 434.473V451.345H556.528V434.473H573.4Z" fill="#BD88FF"/>
<path d="M590.273 434.473V451.345H573.4V434.473H590.273Z" fill="#BD88FF"/>
<path d="M877.11 451.345V468.218H860.237V451.345H877.11Z" fill="#7E18FF"/>
<path d="M893.982 451.345V468.218H877.11V451.345H893.982Z" fill="#B4FFDB"/>
<path d="M910.855 451.345V468.218H893.982V451.345H910.855Z" fill="#BD88FF"/>
<path d="M826.491 451.345V468.218H809.619V451.345H826.491Z" fill="#B4FFDB"/>
<path d="M843.364 451.345V468.218H826.491V451.345H843.364Z" fill="#BD88FF"/>
<path d="M860.237 451.345V468.218H843.364V451.345H860.237Z" fill="#7E18FF"/>
<path d="M775.873 451.345V468.218H759V451.345H775.873Z" fill="#7E18FF"/>
<path d="M792.746 451.345V468.218H775.873V451.345H792.746Z" fill="#B4FFDB"/>
<path d="M809.619 451.345V468.218H792.746V451.345H809.619Z" fill="#B4FFDB"/>
<path d="M725.255 451.345V468.218H708.382V451.345H725.255Z" fill="#7E18FF"/>
<path d="M742.128 451.345V468.218H725.255V451.345H742.128Z" fill="#BD88FF"/>
<path d="M759 451.345V468.218H742.128V451.345H759Z" fill="#BD88FF"/>
<path d="M674.637 451.345V468.218H657.764V451.345H674.637Z" fill="#7E18FF"/>
<path d="M691.51 451.345V468.218H674.637V451.345H691.51Z" fill="#B4FFDB"/>
<path d="M708.382 451.345V468.218H691.51V451.345H708.382Z" fill="#7E18FF"/>
<path d="M624.019 451.345V468.218H607.146V451.345H624.019Z" fill="#7E18FF"/>
<path d="M640.891 451.345V468.218H624.019V451.345H640.891Z" fill="#BD88FF"/>
<path d="M657.764 451.345V468.218H640.891V451.345H657.764Z" fill="#BD88FF"/>
<path d="M573.4 451.345V468.218H556.528V451.345H573.4Z" fill="#7E18FF"/>
<path d="M556.528 451.345V468.218H539.655V451.345H556.528Z" fill="#7E18FF"/>
<path d="M539.655 451.345V468.218H522.782V451.345H539.655Z" fill="#7E18FF"/>
<path d="M590.273 451.345V468.218H573.4V451.345H590.273Z" fill="#BD88FF"/>
<path d="M607.146 451.345V468.218H590.273V451.345H607.146Z" fill="#7E18FF"/>
<path d="M927.728 451.345V468.218H910.855V451.345H927.728Z" fill="#7E18FF"/>
<path d="M944.6 451.345V468.218H927.728V451.345H944.6Z" fill="#7E18FF"/>
<path d="M961.473 451.345V468.218H944.6V451.345H961.473Z" fill="#7E18FF"/>
<path d="M961.473 451.345V468.218H944.6V451.345H961.473Z" fill="#7E18FF"/>
<path d="M961.473 451.345V468.218H944.6V451.345H961.473Z" fill="#7E18FF"/>
<path d="M978.346 451.345V468.218H961.473V451.345H978.346Z" fill="#B4FFDB"/>
<path d="M995.219 451.345V468.218H978.346V451.345H995.219Z" fill="#7E18FF"/>
<path d="M927.728 451.345V468.218H910.855V451.345H927.728Z" fill="#BD88FF"/>
<path d="M944.6 451.345V468.218H927.728V451.345H944.6Z" fill="#BD88FF"/>
<path d="M961.473 46.3999H978.346V63.2727H961.473V46.3999Z" fill="#7E18FF"/>
<path d="M961.473 29.5272H978.346V46.3999H961.473V29.5272Z" fill="#B4FFDB"/>
<path d="M961.473 12.6545H978.346V29.5272H961.473V12.6545Z" fill="#B4FFDB"/>
<path d="M961.473 434.473H978.346V451.345H961.473V434.473Z" fill="#7E18FF"/>
<path d="M961.473 417.6H978.346V434.473H961.473V417.6Z" fill="#7E18FF"/>
<path d="M961.473 400.727H978.346V417.6H961.473V400.727Z" fill="#7E18FF"/>
<path d="M961.473 97.0181H978.346V113.891H961.473V97.0181Z" fill="#7E18FF"/>
<path d="M961.473 80.1454H978.346V97.0181H961.473V80.1454Z" fill="#7E18FF"/>
<path d="M961.473 63.2727H978.346V80.1454H961.473V63.2727Z" fill="#7E18FF"/>
<path d="M961.473 147.636H978.346V164.509H961.473V147.636Z" fill="#7E18FF"/>
<path d="M961.473 130.764H978.346V147.636H961.473V130.764Z" fill="#B4FFDB"/>
<path d="M961.473 113.891H978.346V130.764H961.473V113.891Z" fill="#B4FFDB"/>
<path d="M961.473 198.254H978.346V215.127H961.473V198.254Z" fill="#BD88FF"/>
<path d="M961.473 181.382H978.346V198.254H961.473V181.382Z" fill="#BD88FF"/>
<path d="M961.473 164.509H978.346V181.382H961.473V164.509Z" fill="#BD88FF"/>
<path d="M961.473 248.873H978.346V265.745H961.473V248.873Z" fill="#B4FFDB"/>
<path d="M961.473 232H978.346V248.873H961.473V232Z" fill="#B4FFDB"/>
<path d="M961.473 215.127H978.346V232H961.473V215.127Z" fill="#BD88FF"/>
<path d="M961.473 299.491H978.346V316.364H961.473V299.491Z" fill="#BD88FF"/>
<path d="M961.473 282.618H978.346V299.491H961.473V282.618Z" fill="#BD88FF"/>
<path d="M961.473 265.745H978.346V282.618H961.473V265.745Z" fill="#BD88FF"/>
<path d="M961.473 350.109H978.346V366.982H961.473V350.109Z" fill="#B4FFDB"/>
<path d="M961.473 333.236H978.346V350.109H961.473V333.236Z" fill="#B4FFDB"/>
<path d="M961.473 316.364H978.346V333.236H961.473V316.364Z" fill="#7E18FF"/>
<path d="M961.473 400.727H978.346V417.6H961.473V400.727Z" fill="#7E18FF"/>
<path d="M961.473 383.854H978.346V400.727H961.473V383.854Z" fill="#B4FFDB"/>
<path d="M961.473 366.982H978.346V383.854H961.473V366.982Z" fill="#B4FFDB"/>
<path d="M961.473 434.473H978.346V451.345H961.473V434.473Z" fill="#BD88FF"/>
<path d="M961.473 417.6H978.346V434.473H961.473V417.6Z" fill="#BD88FF"/>
<path d="M978.346 130.764H995.219V147.636H978.346V130.764Z" fill="#7E18FF"/>
<path d="M978.346 113.891H995.219V130.764H978.346V113.891Z" fill="#B4FFDB"/>
<path d="M978.346 97.0181H995.219V113.891H978.346V97.0181Z" fill="#BD88FF"/>
<path d="M978.346 181.382H995.219V198.254H978.346V181.382Z" fill="#7E18FF"/>
<path d="M978.346 164.509H995.219V181.382H978.346V164.509Z" fill="#7E18FF"/>
<path d="M978.346 147.636H995.219V164.509H978.346V147.636Z" fill="#7E18FF"/>
<path d="M978.346 232H995.219V248.873H978.346V232Z" fill="#B4FFDB"/>
<path d="M978.346 215.127H995.219V232H978.346V215.127Z" fill="#B4FFDB"/>
<path d="M978.346 198.254H995.219V215.127H978.346V198.254Z" fill="#B4FFDB"/>
<path d="M978.346 282.618H995.219V299.491H978.346V282.618Z" fill="#7E18FF"/>
<path d="M978.346 265.745H995.219V282.618H978.346V265.745Z" fill="#BD88FF"/>
<path d="M978.346 248.873H995.219V265.745H978.346V248.873Z" fill="#BD88FF"/>
<path d="M978.346 333.236H995.219V350.109H978.346V333.236Z" fill="#7E18FF"/>
<path d="M978.346 316.364H995.219V333.236H978.346V316.364Z" fill="#7E18FF"/>
<path d="M978.346 299.491H995.219V316.364H978.346V299.491Z" fill="#7E18FF"/>
<path d="M978.346 383.854H995.219V400.727H978.346V383.854Z" fill="#7E18FF"/>
<path d="M978.346 366.982H995.219V383.854H978.346V366.982Z" fill="#7E18FF"/>
<path d="M978.346 350.109H995.219V366.982H978.346V350.109Z" fill="#B4FFDB"/>
<path d="M978.346 434.473H995.219V451.345H978.346V434.473Z" fill="#7E18FF"/>
<path d="M978.346 417.6H995.219V434.473H978.346V417.6Z" fill="#B4FFDB"/>
<path d="M978.346 400.727H995.219V417.6H978.346V400.727Z" fill="#7E18FF"/>
<path d="M978.346 80.1454H995.219V97.0181H978.346V80.1454Z" fill="#7E18FF"/>
<path d="M978.346 63.2727H995.219V80.1454H978.346V63.2727Z" fill="#7E18FF"/>
<path d="M978.346 46.3999H995.219V63.2727H978.346V46.3999Z" fill="#7E18FF"/>
<path d="M978.346 46.3999H995.219V63.2727H978.346V46.3999Z" fill="#7E18FF"/>
<path d="M978.346 46.3999H995.219V63.2727H978.346V46.3999Z" fill="#7E18FF"/>
<path d="M978.346 29.5272H995.219V46.3999H978.346V29.5272Z" fill="#B4FFDB"/>
<path d="M978.346 12.6545H995.219V29.5272H978.346V12.6545Z" fill="#B4FFDB"/>
<path d="M978.346 80.1454H995.219V97.0181H978.346V80.1454Z" fill="#BD88FF"/>
<path d="M978.346 63.2727H995.219V80.1454H978.346V63.2727Z" fill="#BD88FF"/>
</g>
</g>
<g opacity="0.2">
<rect x="1097.73" y="15.729" width="440.407" height="432.542" rx="31.4576" fill="url(#paint2_linear_1152_9185)"/>
<path d="M1165.76 156.109H1242.04V232.394H1172.44C1168.75 232.394 1165.76 229.401 1165.76 225.709V156.109Z" fill="#7E18FF" stroke="black" stroke-width="2.35932"/>
<rect x="1242.04" y="232.394" width="76.2847" height="76.2847" fill="#7E18FF" stroke="black" stroke-width="2.35932"/>
<path d="M1318.33 232.394H1387.93C1391.62 232.394 1394.61 235.386 1394.61 239.078V301.994C1394.61 305.685 1391.62 308.678 1387.93 308.678H1318.33V232.394Z" fill="#00FF84" stroke="black" stroke-width="2.35932"/>
<path d="M1165.76 86.5089C1165.76 82.8171 1168.75 79.8242 1172.44 79.8242H1242.04V156.109H1165.76V86.5089Z" fill="#7E18FF" stroke="black" stroke-width="2.35932"/>
<rect x="1242.04" y="79.8242" width="76.2847" height="76.2847" fill="#7E18FF" stroke="black" stroke-width="2.35932"/>
<rect x="1318.33" y="79.8242" width="76.2847" height="76.2847" fill="#00FF84" stroke="black" stroke-width="2.35932"/>
<path d="M1394.61 79.8242H1464.21C1467.9 79.8242 1470.89 82.8171 1470.89 86.5089V149.424C1470.89 153.116 1467.9 156.109 1464.21 156.109H1394.61V79.8242Z" fill="#00FF84" stroke="black" stroke-width="2.35932"/>
<path d="M1242.04 308.678H1318.33V378.278C1318.33 381.97 1315.33 384.962 1311.64 384.962H1242.04V308.678Z" fill="#7E18FF" stroke="black" stroke-width="2.35932"/>
<path d="M1165.76 315.362C1165.76 311.671 1168.75 308.678 1172.44 308.678H1242.04V384.962H1172.44C1168.75 384.962 1165.76 381.97 1165.76 378.278V315.362Z" fill="#7E18FF" stroke="black" stroke-width="2.35932"/>
<mask id="mask2_1152_9185" style="mask-type:alpha" maskUnits="userSpaceOnUse" x="1082" y="0" width="464" height="464">
<rect x="1094.43" y="12.4286" width="439.143" height="439.143" rx="28.066" stroke="black" stroke-width="24.8571"/>
</mask>
<g mask="url(#mask2_1152_9185)">
<path d="M1128.4 29.5272V12.6545H1145.27V29.5272H1128.4Z" fill="#7E18FF"/>
<path d="M1111.53 29.5272V12.6545H1128.4V29.5272H1111.53Z" fill="#B4FFDB"/>
<path d="M1094.65 29.5272V12.6545H1111.53V29.5272H1094.65Z" fill="#BD88FF"/>
<path d="M1516.47 29.5272V12.6545H1533.35V29.5272H1516.47Z" fill="#7E18FF"/>
<path d="M1499.6 29.5272V12.6545H1516.47V29.5272H1499.6Z" fill="#7E18FF"/>
<path d="M1482.73 29.5272V12.6545H1499.6V29.5272H1482.73Z" fill="#7E18FF"/>
<path d="M1179.02 29.5272V12.6545H1195.89V29.5272H1179.02Z" fill="#7E18FF"/>
<path d="M1162.15 29.5272V12.6545H1179.02V29.5272H1162.15Z" fill="#BD88FF"/>
<path d="M1145.27 29.5272V12.6545H1162.15V29.5272H1145.27Z" fill="#7E18FF"/>
<path d="M1229.64 29.5272V12.6545H1246.51V29.5272H1229.64Z" fill="#7E18FF"/>
<path d="M1212.76 29.5272V12.6545H1229.64V29.5272H1212.76Z" fill="#B4FFDB"/>
<path d="M1195.89 29.5272V12.6545H1212.76V29.5272H1195.89Z" fill="#B4FFDB"/>
<path d="M1280.25 29.5272V12.6545H1297.13V29.5272H1280.25Z" fill="#7E18FF"/>
<path d="M1263.38 29.5272V12.6545H1280.25V29.5272H1263.38Z" fill="#7E18FF"/>
<path d="M1246.51 29.5272V12.6545H1263.38V29.5272H1246.51Z" fill="#BD88FF"/>
<path d="M1330.87 29.5272V12.6545H1347.75V29.5272H1330.87Z" fill="#BD88FF"/>
<path d="M1314 29.5272V12.6545H1330.87V29.5272H1314Z" fill="#B4FFDB"/>
<path d="M1297.13 29.5272V12.6545H1314V29.5272H1297.13Z" fill="#7E18FF"/>
<path d="M1381.49 29.5272V12.6545H1398.36V29.5272H1381.49Z" fill="#7E18FF"/>
<path d="M1364.62 29.5272V12.6545H1381.49V29.5272H1364.62Z" fill="#BD88FF"/>
<path d="M1347.75 29.5272V12.6545H1364.62V29.5272H1347.75Z" fill="#BD88FF"/>
<path d="M1432.11 29.5272V12.6545H1448.98V29.5272H1432.11Z" fill="#B4FFDB"/>
<path d="M1415.24 29.5272V12.6545H1432.11V29.5272H1415.24Z" fill="#B4FFDB"/>
<path d="M1398.36 29.5272V12.6545H1415.24V29.5272H1398.36Z" fill="#7E18FF"/>
<path d="M1482.73 29.5272V12.6545H1499.6V29.5272H1482.73Z" fill="#7E18FF"/>
<path d="M1465.85 29.5272V12.6545H1482.73V29.5272H1465.85Z" fill="#B4FFDB"/>
<path d="M1448.98 29.5272V12.6545H1465.85V29.5272H1448.98Z" fill="#B4FFDB"/>
<path d="M1516.47 29.5272V12.6545H1533.35V29.5272H1516.47Z" fill="#BD88FF"/>
<path d="M1499.6 29.5272V12.6545H1516.47V29.5272H1499.6Z" fill="#B4FFDB"/>
<path d="M1212.76 12.6545V-4.21826H1229.64V12.6545H1212.76Z" fill="#7E18FF"/>
<path d="M1195.89 12.6545V-4.21826H1212.76V12.6545H1195.89Z" fill="#B4FFDB"/>
<path d="M1179.02 12.6545V-4.21826H1195.89V12.6545H1179.02Z" fill="#BD88FF"/>
<path d="M1263.38 12.6545V-4.21826H1280.25V12.6545H1263.38Z" fill="#7E18FF"/>
<path d="M1246.51 12.6545V-4.21826H1263.38V12.6545H1246.51Z" fill="#BD88FF"/>
<path d="M1229.64 12.6545V-4.21826H1246.51V12.6545H1229.64Z" fill="#7E18FF"/>
<path d="M1314 12.6545V-4.21826H1330.87V12.6545H1314Z" fill="#B4FFDB"/>
<path d="M1297.13 12.6545V-4.21826H1314V12.6545H1297.13Z" fill="#B4FFDB"/>
<path d="M1280.25 12.6545V-4.21826H1297.13V12.6545H1280.25Z" fill="#B4FFDB"/>
<path d="M1364.62 12.6545V-4.21826H1381.49V12.6545H1364.62Z" fill="#7E18FF"/>
<path d="M1347.75 12.6545V-4.21826H1364.62V12.6545H1347.75Z" fill="#7E18FF"/>
<path d="M1330.87 12.6545V-4.21826H1347.75V12.6545H1330.87Z" fill="#BD88FF"/>
<path d="M1415.24 12.6545V-4.21826H1432.11V12.6545H1415.24Z" fill="#7E18FF"/>
<path d="M1398.36 12.6545V-4.21826H1415.24V12.6545H1398.36Z" fill="#7E18FF"/>
<path d="M1381.49 12.6545V-4.21826H1398.36V12.6545H1381.49Z" fill="#7E18FF"/>
<path d="M1465.85 12.6545V-4.21826H1482.73V12.6545H1465.85Z" fill="#BD88FF"/>
<path d="M1448.98 12.6545V-4.21826H1465.85V12.6545H1448.98Z" fill="#BD88FF"/>
<path d="M1432.11 12.6545V-4.21826H1448.98V12.6545H1432.11Z" fill="#BD88FF"/>
<path d="M1516.47 12.6545V-4.21826H1533.35V12.6545H1516.47Z" fill="#7E18FF"/>
<path d="M1533.35 12.6545V-4.21826H1550.22V12.6545H1533.35Z" fill="#7E18FF"/>
<path d="M1499.6 12.6545V-4.21826H1516.47V12.6545H1499.6Z" fill="#B4FFDB"/>
<path d="M1482.73 12.6545V-4.21826H1499.6V12.6545H1482.73Z" fill="#7E18FF"/>
<path d="M1162.15 12.6545V-4.21826H1179.02V12.6545H1162.15Z" fill="#7E18FF"/>
<path d="M1145.27 12.6545V-4.21826H1162.15V12.6545H1145.27Z" fill="#7E18FF"/>
<path d="M1128.4 12.6545V-4.21826H1145.27V12.6545H1128.4Z" fill="#7E18FF"/>
<path d="M1128.4 12.6545V-4.21826H1145.27V12.6545H1128.4Z" fill="#7E18FF"/>
<path d="M1128.4 12.6545V-4.21826H1145.27V12.6545H1128.4Z" fill="#7E18FF"/>
<path d="M1111.53 12.6545V-4.21826H1128.4V12.6545H1111.53Z" fill="#B4FFDB"/>
<path d="M1094.65 12.6545V-4.21826H1111.53V12.6545H1094.65Z" fill="#B4FFDB"/>
<path d="M1162.15 12.6545V-4.21826H1179.02V12.6545H1162.15Z" fill="#BD88FF"/>
<path d="M1145.27 12.6545V-4.21826H1162.15V12.6545H1145.27Z" fill="#BD88FF"/>
<path d="M1111.53 417.6H1094.65V400.727H1111.53V417.6Z" fill="#7E18FF"/>
<path d="M1111.53 434.473H1094.65V417.6H1111.53V434.473Z" fill="#7E18FF"/>
<path d="M1111.53 451.345H1094.65V434.473H1111.53V451.345Z" fill="#BD88FF"/>
<path d="M1111.53 29.5272H1094.65V12.6545H1111.53V29.5272Z" fill="#7E18FF"/>
<path d="M1111.53 46.3999H1094.65V29.5272H1111.53V46.3999Z" fill="#7E18FF"/>
<path d="M1111.53 63.2727H1094.65V46.3999H1111.53V63.2727Z" fill="#7E18FF"/>
<path d="M1111.53 366.982H1094.65V350.109H1111.53V366.982Z" fill="#7E18FF"/>
<path d="M1111.53 383.854H1094.65V366.982H1111.53V383.854Z" fill="#BD88FF"/>
<path d="M1111.53 400.727H1094.65V383.854H1111.53V400.727Z" fill="#7E18FF"/>
<path d="M1111.53 316.364H1094.65V299.491H1111.53V316.364Z" fill="#7E18FF"/>
<path d="M1111.53 333.236H1094.65V316.364H1111.53V333.236Z" fill="#B4FFDB"/>
<path d="M1111.53 350.109H1094.65V333.236H1111.53V350.109Z" fill="#B4FFDB"/>
<path d="M1111.53 265.745H1094.65V248.873H1111.53V265.745Z" fill="#7E18FF"/>
<path d="M1111.53 282.618H1094.65V265.745H1111.53V282.618Z" fill="#B4FFDB"/>
<path d="M1111.53 299.491H1094.65V282.618H1111.53V299.491Z" fill="#BD88FF"/>
<path d="M1111.53 215.127H1094.65V198.254H1111.53V215.127Z" fill="#BD88FF"/>
<path d="M1111.53 232H1094.65V215.127H1111.53V232Z" fill="#7E18FF"/>
<path d="M1111.53 248.873H1094.65V232H1111.53V248.873Z" fill="#7E18FF"/>
<path d="M1111.53 164.509H1094.65V147.636H1111.53V164.509Z" fill="#7E18FF"/>
<path d="M1111.53 181.382H1094.65V164.509H1111.53V181.382Z" fill="#BD88FF"/>
<path d="M1111.53 198.254H1094.65V181.382H1111.53V198.254Z" fill="#BD88FF"/>
<path d="M1111.53 113.891H1094.65V97.0181H1111.53V113.891Z" fill="#7E18FF"/>
<path d="M1111.53 130.764H1094.65V113.891H1111.53V130.764Z" fill="#7E18FF"/>
<path d="M1111.53 147.636H1094.65V130.764H1111.53V147.636Z" fill="#7E18FF"/>
<path d="M1111.53 63.2727H1094.65V46.3999H1111.53V63.2727Z" fill="#7E18FF"/>
<path d="M1111.53 80.1454H1094.65V63.2727H1111.53V80.1454Z" fill="#B4FFDB"/>
<path d="M1111.53 97.0181H1094.65V80.1454H1111.53V97.0181Z" fill="#B4FFDB"/>
<path d="M1111.53 29.5272H1094.65V12.6545H1111.53V29.5272Z" fill="#BD88FF"/>
<path d="M1111.53 46.3999H1094.65V29.5272H1111.53V46.3999Z" fill="#BD88FF"/>
<path d="M1094.65 333.236H1077.78V316.364H1094.65V333.236Z" fill="#7E18FF"/>
<path d="M1094.65 350.109H1077.78V333.236H1094.65V350.109Z" fill="#B4FFDB"/>
<path d="M1094.65 366.982H1077.78V350.109H1094.65V366.982Z" fill="#BD88FF"/>
<path d="M1094.65 282.618H1077.78V265.745H1094.65V282.618Z" fill="#B4FFDB"/>
<path d="M1094.65 299.491H1077.78V282.618H1094.65V299.491Z" fill="#BD88FF"/>
<path d="M1094.65 316.364H1077.78V299.491H1094.65V316.364Z" fill="#7E18FF"/>
<path d="M1094.65 232H1077.78V215.127H1094.65V232Z" fill="#7E18FF"/>
<path d="M1094.65 248.873H1077.78V232H1094.65V248.873Z" fill="#B4FFDB"/>
<path d="M1094.65 265.745H1077.78V248.873H1094.65V265.745Z" fill="#B4FFDB"/>
<path d="M1094.65 181.382H1077.78V164.509H1094.65V181.382Z" fill="#B4FFDB"/>
<path d="M1094.65 198.254H1077.78V181.382H1094.65V198.254Z" fill="#B4FFDB"/>
<path d="M1094.65 215.127H1077.78V198.254H1094.65V215.127Z" fill="#BD88FF"/>
<path d="M1094.65 130.764H1077.78V113.891H1094.65V130.764Z" fill="#7E18FF"/>
<path d="M1094.65 147.636H1077.78V130.764H1094.65V147.636Z" fill="#B4FFDB"/>
<path d="M1094.65 164.509H1077.78V147.636H1094.65V164.509Z" fill="#B4FFDB"/>
<path d="M1094.65 80.1454H1077.78V63.2727H1094.65V80.1454Z" fill="#7E18FF"/>
<path d="M1094.65 97.0181H1077.78V80.1454H1094.65V97.0181Z" fill="#BD88FF"/>
<path d="M1094.65 113.891H1077.78V97.0181H1094.65V113.891Z" fill="#BD88FF"/>
<path d="M1094.65 29.5272H1077.78V12.6545H1094.65V29.5272Z" fill="#7E18FF"/>
<path d="M1094.65 12.6545H1077.78V-4.21826H1094.65V12.6545Z" fill="#7E18FF"/>
<path d="M1094.65 46.3999H1077.78V29.5272H1094.65V46.3999Z" fill="#7E18FF"/>
<path d="M1094.65 63.2727H1077.78V46.3999H1094.65V63.2727Z" fill="#7E18FF"/>
<path d="M1094.65 383.854H1077.78V366.982H1094.65V383.854Z" fill="#7E18FF"/>
<path d="M1094.65 400.727H1077.78V383.854H1094.65V400.727Z" fill="#7E18FF"/>
<path d="M1094.65 417.6H1077.78V400.727H1094.65V417.6Z" fill="#7E18FF"/>
<path d="M1094.65 417.6H1077.78V400.727H1094.65V417.6Z" fill="#7E18FF"/>
<path d="M1094.65 417.6H1077.78V400.727H1094.65V417.6Z" fill="#7E18FF"/>
<path d="M1094.65 434.473H1077.78V417.6H1094.65V434.473Z" fill="#B4FFDB"/>
<path d="M1094.65 451.345H1077.78V434.473H1094.65V451.345Z" fill="#B4FFDB"/>
<path d="M1094.65 383.854H1077.78V366.982H1094.65V383.854Z" fill="#BD88FF"/>
<path d="M1094.65 400.727H1077.78V383.854H1094.65V400.727Z" fill="#BD88FF"/>
<path d="M1516.47 434.473V451.345H1499.6V434.473H1516.47Z" fill="#7E18FF"/>
<path d="M1533.35 434.473V451.345H1516.47V434.473H1533.35Z" fill="#A7DAC1"/>
<path d="M1550.22 434.473V451.345H1533.35V434.473H1550.22Z" fill="#BD88FF"/>
<path d="M1128.4 434.473V451.345H1111.53V434.473H1128.4Z" fill="#7E18FF"/>
<path d="M1145.27 434.473V451.345H1128.4V434.473H1145.27Z" fill="#7E18FF"/>
<path d="M1162.15 434.473V451.345H1145.27V434.473H1162.15Z" fill="#7E18FF"/>
<path d="M1465.85 434.473V451.345H1448.98V434.473H1465.85Z" fill="#7E18FF"/>
<path d="M1482.73 434.473V451.345H1465.85V434.473H1482.73Z" fill="#BD88FF"/>
<path d="M1499.6 434.473V451.345H1482.73V434.473H1499.6Z" fill="#7E18FF"/>
<path d="M1415.24 434.473V451.345H1398.36V434.473H1415.24Z" fill="#7E18FF"/>
<path d="M1432.11 434.473V451.345H1415.24V434.473H1432.11Z" fill="#B4FFDB"/>
<path d="M1448.98 434.473V451.345H1432.11V434.473H1448.98Z" fill="#B4FFDB"/>
<path d="M1364.62 434.473V451.345H1347.75V434.473H1364.62Z" fill="#7E18FF"/>
<path d="M1381.49 434.473V451.345H1364.62V434.473H1381.49Z" fill="#B4FFDB"/>
<path d="M1398.36 434.473V451.345H1381.49V434.473H1398.36Z" fill="#BD88FF"/>
<path d="M1314 434.473V451.345H1297.13V434.473H1314Z" fill="#7E18FF"/>
<path d="M1330.87 434.473V451.345H1314V434.473H1330.87Z" fill="#B4FFDB"/>
<path d="M1347.75 434.473V451.345H1330.87V434.473H1347.75Z" fill="#7E18FF"/>
<path d="M1263.38 434.473V451.345H1246.51V434.473H1263.38Z" fill="#7E18FF"/>
<path d="M1280.25 434.473V451.345H1263.38V434.473H1280.25Z" fill="#BD88FF"/>
<path d="M1297.13 434.473V451.345H1280.25V434.473H1297.13Z" fill="#BD88FF"/>
<path d="M1212.76 434.473V451.345H1195.89V434.473H1212.76Z" fill="#B4FFDB"/>
<path d="M1229.64 434.473V451.345H1212.76V434.473H1229.64Z" fill="#B4FFDB"/>
<path d="M1246.51 434.473V451.345H1229.64V434.473H1246.51Z" fill="#B4FFDB"/>
<path d="M1162.15 434.473V451.345H1145.27V434.473H1162.15Z" fill="#7E18FF"/>
<path d="M1179.02 434.473V451.345H1162.15V434.473H1179.02Z" fill="#B4FFDB"/>
<path d="M1195.89 434.473V451.345H1179.02V434.473H1195.89Z" fill="#B4FFDB"/>
<path d="M1128.4 434.473V451.345H1111.53V434.473H1128.4Z" fill="#BD88FF"/>
<path d="M1145.27 434.473V451.345H1128.4V434.473H1145.27Z" fill="#BD88FF"/>
<path d="M1432.11 451.345V468.218H1415.24V451.345H1432.11Z" fill="#7E18FF"/>
<path d="M1448.98 451.345V468.218H1432.11V451.345H1448.98Z" fill="#B4FFDB"/>
<path d="M1465.85 451.345V468.218H1448.98V451.345H1465.85Z" fill="#BD88FF"/>
<path d="M1381.49 451.345V468.218H1364.62V451.345H1381.49Z" fill="#B4FFDB"/>
<path d="M1398.36 451.345V468.218H1381.49V451.345H1398.36Z" fill="#BD88FF"/>
<path d="M1415.24 451.345V468.218H1398.36V451.345H1415.24Z" fill="#7E18FF"/>
<path d="M1330.87 451.345V468.218H1314V451.345H1330.87Z" fill="#7E18FF"/>
<path d="M1347.75 451.345V468.218H1330.87V451.345H1347.75Z" fill="#B4FFDB"/>
<path d="M1364.62 451.345V468.218H1347.75V451.345H1364.62Z" fill="#B4FFDB"/>
<path d="M1280.25 451.345V468.218H1263.38V451.345H1280.25Z" fill="#7E18FF"/>
<path d="M1297.13 451.345V468.218H1280.25V451.345H1297.13Z" fill="#BD88FF"/>
<path d="M1314 451.345V468.218H1297.13V451.345H1314Z" fill="#BD88FF"/>
<path d="M1229.64 451.345V468.218H1212.76V451.345H1229.64Z" fill="#7E18FF"/>
<path d="M1246.51 451.345V468.218H1229.64V451.345H1246.51Z" fill="#B4FFDB"/>
<path d="M1263.38 451.345V468.218H1246.51V451.345H1263.38Z" fill="#7E18FF"/>
<path d="M1179.02 451.345V468.218H1162.15V451.345H1179.02Z" fill="#7E18FF"/>
<path d="M1195.89 451.345V468.218H1179.02V451.345H1195.89Z" fill="#BD88FF"/>
<path d="M1212.76 451.345V468.218H1195.89V451.345H1212.76Z" fill="#BD88FF"/>
<path d="M1128.4 451.345V468.218H1111.53V451.345H1128.4Z" fill="#7E18FF"/>
<path d="M1111.53 451.345V468.218H1094.65V451.345H1111.53Z" fill="#7E18FF"/>
<path d="M1094.65 451.345V468.218H1077.78V451.345H1094.65Z" fill="#7E18FF"/>
<path d="M1145.27 451.345V468.218H1128.4V451.345H1145.27Z" fill="#BD88FF"/>
<path d="M1162.15 451.345V468.218H1145.27V451.345H1162.15Z" fill="#7E18FF"/>
<path d="M1482.73 451.345V468.218H1465.85V451.345H1482.73Z" fill="#7E18FF"/>
<path d="M1499.6 451.345V468.218H1482.73V451.345H1499.6Z" fill="#7E18FF"/>
<path d="M1516.47 451.345V468.218H1499.6V451.345H1516.47Z" fill="#7E18FF"/>
<path d="M1516.47 451.345V468.218H1499.6V451.345H1516.47Z" fill="#7E18FF"/>
<path d="M1516.47 451.345V468.218H1499.6V451.345H1516.47Z" fill="#7E18FF"/>
<path d="M1533.35 451.345V468.218H1516.47V451.345H1533.35Z" fill="#B4FFDB"/>
<path d="M1550.22 451.345V468.218H1533.35V451.345H1550.22Z" fill="#7E18FF"/>
<path d="M1482.73 451.345V468.218H1465.85V451.345H1482.73Z" fill="#BD88FF"/>
<path d="M1499.6 451.345V468.218H1482.73V451.345H1499.6Z" fill="#BD88FF"/>
<path d="M1516.47 46.3999H1533.35V63.2727H1516.47V46.3999Z" fill="#7E18FF"/>
<path d="M1516.47 29.5272H1533.35V46.3999H1516.47V29.5272Z" fill="#B4FFDB"/>
<path d="M1516.47 12.6545H1533.35V29.5272H1516.47V12.6545Z" fill="#B4FFDB"/>
<path d="M1516.47 434.473H1533.35V451.345H1516.47V434.473Z" fill="#7E18FF"/>
<path d="M1516.47 417.6H1533.35V434.473H1516.47V417.6Z" fill="#7E18FF"/>
<path d="M1516.47 400.727H1533.35V417.6H1516.47V400.727Z" fill="#7E18FF"/>
<path d="M1516.47 97.0181H1533.35V113.891H1516.47V97.0181Z" fill="#7E18FF"/>
<path d="M1516.47 80.1454H1533.35V97.0181H1516.47V80.1454Z" fill="#7E18FF"/>
<path d="M1516.47 63.2727H1533.35V80.1454H1516.47V63.2727Z" fill="#7E18FF"/>
<path d="M1516.47 147.636H1533.35V164.509H1516.47V147.636Z" fill="#7E18FF"/>
<path d="M1516.47 130.764H1533.35V147.636H1516.47V130.764Z" fill="#B4FFDB"/>
<path d="M1516.47 113.891H1533.35V130.764H1516.47V113.891Z" fill="#B4FFDB"/>
<path d="M1516.47 198.254H1533.35V215.127H1516.47V198.254Z" fill="#BD88FF"/>
<path d="M1516.47 181.382H1533.35V198.254H1516.47V181.382Z" fill="#BD88FF"/>
<path d="M1516.47 164.509H1533.35V181.382H1516.47V164.509Z" fill="#BD88FF"/>
<path d="M1516.47 248.873H1533.35V265.745H1516.47V248.873Z" fill="#B4FFDB"/>
<path d="M1516.47 232H1533.35V248.873H1516.47V232Z" fill="#B4FFDB"/>
<path d="M1516.47 215.127H1533.35V232H1516.47V215.127Z" fill="#BD88FF"/>
<path d="M1516.47 299.491H1533.35V316.364H1516.47V299.491Z" fill="#BD88FF"/>
<path d="M1516.47 282.618H1533.35V299.491H1516.47V282.618Z" fill="#BD88FF"/>
<path d="M1516.47 265.745H1533.35V282.618H1516.47V265.745Z" fill="#BD88FF"/>
<path d="M1516.47 350.109H1533.35V366.982H1516.47V350.109Z" fill="#B4FFDB"/>
<path d="M1516.47 333.236H1533.35V350.109H1516.47V333.236Z" fill="#B4FFDB"/>
<path d="M1516.47 316.364H1533.35V333.236H1516.47V316.364Z" fill="#7E18FF"/>
<path d="M1516.47 400.727H1533.35V417.6H1516.47V400.727Z" fill="#7E18FF"/>
<path d="M1516.47 383.854H1533.35V400.727H1516.47V383.854Z" fill="#B4FFDB"/>
<path d="M1516.47 366.982H1533.35V383.854H1516.47V366.982Z" fill="#B4FFDB"/>
<path d="M1516.47 434.473H1533.35V451.345H1516.47V434.473Z" fill="#BD88FF"/>
<path d="M1516.47 417.6H1533.35V434.473H1516.47V417.6Z" fill="#BD88FF"/>
<path d="M1533.35 130.764H1550.22V147.636H1533.35V130.764Z" fill="#7E18FF"/>
<path d="M1533.35 113.891H1550.22V130.764H1533.35V113.891Z" fill="#B4FFDB"/>
<path d="M1533.35 97.0181H1550.22V113.891H1533.35V97.0181Z" fill="#BD88FF"/>
<path d="M1533.35 181.382H1550.22V198.254H1533.35V181.382Z" fill="#7E18FF"/>
<path d="M1533.35 164.509H1550.22V181.382H1533.35V164.509Z" fill="#7E18FF"/>
<path d="M1533.35 147.636H1550.22V164.509H1533.35V147.636Z" fill="#7E18FF"/>
<path d="M1533.35 232H1550.22V248.873H1533.35V232Z" fill="#B4FFDB"/>
<path d="M1533.35 215.127H1550.22V232H1533.35V215.127Z" fill="#B4FFDB"/>
<path d="M1533.35 198.254H1550.22V215.127H1533.35V198.254Z" fill="#B4FFDB"/>
<path d="M1533.35 282.618H1550.22V299.491H1533.35V282.618Z" fill="#7E18FF"/>
<path d="M1533.35 265.745H1550.22V282.618H1533.35V265.745Z" fill="#BD88FF"/>
<path d="M1533.35 248.873H1550.22V265.745H1533.35V248.873Z" fill="#BD88FF"/>
<path d="M1533.35 333.236H1550.22V350.109H1533.35V333.236Z" fill="#7E18FF"/>
<path d="M1533.35 316.364H1550.22V333.236H1533.35V316.364Z" fill="#7E18FF"/>
<path d="M1533.35 299.491H1550.22V316.364H1533.35V299.491Z" fill="#7E18FF"/>
<path d="M1533.35 383.854H1550.22V400.727H1533.35V383.854Z" fill="#7E18FF"/>
<path d="M1533.35 366.982H1550.22V383.854H1533.35V366.982Z" fill="#7E18FF"/>
<path d="M1533.35 350.109H1550.22V366.982H1533.35V350.109Z" fill="#B4FFDB"/>
<path d="M1533.35 434.473H1550.22V451.345H1533.35V434.473Z" fill="#7E18FF"/>
<path d="M1533.35 417.6H1550.22V434.473H1533.35V417.6Z" fill="#B4FFDB"/>
<path d="M1533.35 400.727H1550.22V417.6H1533.35V400.727Z" fill="#7E18FF"/>
<path d="M1533.35 80.1454H1550.22V97.0181H1533.35V80.1454Z" fill="#7E18FF"/>
<path d="M1533.35 63.2727H1550.22V80.1454H1533.35V63.2727Z" fill="#7E18FF"/>
<path d="M1533.35 46.3999H1550.22V63.2727H1533.35V46.3999Z" fill="#7E18FF"/>
<path d="M1533.35 46.3999H1550.22V63.2727H1533.35V46.3999Z" fill="#7E18FF"/>
<path d="M1533.35 46.3999H1550.22V63.2727H1533.35V46.3999Z" fill="#7E18FF"/>
<path d="M1533.35 29.5272H1550.22V46.3999H1533.35V29.5272Z" fill="#B4FFDB"/>
<path d="M1533.35 12.6545H1550.22V29.5272H1533.35V12.6545Z" fill="#B4FFDB"/>
<path d="M1533.35 80.1454H1550.22V97.0181H1533.35V80.1454Z" fill="#BD88FF"/>
<path d="M1533.35 63.2727H1550.22V80.1454H1533.35V63.2727Z" fill="#BD88FF"/>
</g>
</g>
</g>
<defs>
<linearGradient id="paint0_linear_1152_9185" x1="207.933" y1="15.729" x2="207.933" y2="448.271" gradientUnits="userSpaceOnUse">
<stop offset="0.276042" stop-color="#D2C2FF"/>
<stop offset="1" stop-color="#C1F8FF"/>
</linearGradient>
<linearGradient id="paint1_linear_1152_9185" x1="762.933" y1="15.729" x2="762.933" y2="448.271" gradientUnits="userSpaceOnUse">
<stop offset="0.276042" stop-color="#D2C2FF"/>
<stop offset="1" stop-color="#C1F8FF"/>
</linearGradient>
<linearGradient id="paint2_linear_1152_9185" x1="1317.93" y1="15.729" x2="1317.93" y2="448.271" gradientUnits="userSpaceOnUse">
<stop offset="0.276042" stop-color="#D2C2FF"/>
<stop offset="1" stop-color="#C1F8FF"/>
</linearGradient>
</defs>
</svg>
